<svg width="19" height="19" viewBox="0 0 19 19" fill="none" xmlns="http://www.w3.org/2000/svg">
<circle cx="9.5" cy="9.5" r="9.5" fill="#E6E7E9"/>
<path d="M10.41 13.622C10.41 13.7247 10.3727 13.8133 10.298 13.888C10.2233 13.9627 10.1347 14 10.032 14H9.234C9.13133 14 9.04267 13.9627 8.968 13.888C8.89333 13.8133 8.856 13.7247 8.856 13.622V12.824C8.856 12.7213 8.89333 12.6327 8.968 12.558C9.04267 12.4833 9.13133 12.446 9.234 12.446H10.032C10.1347 12.446 10.2233 12.4833 10.298 12.558C10.3727 12.6327 10.41 12.7213 10.41 12.824V13.622ZM6.42 6.79C6.43867 6.482 6.51333 6.16933 6.644 5.852C6.784 5.52533 6.98467 5.23133 7.246 4.97C7.51667 4.69933 7.85267 4.48 8.254 4.312C8.65533 4.144 9.122 4.06 9.654 4.06C10.1113 4.06 10.5313 4.13 10.914 4.27C11.306 4.40067 11.642 4.58267 11.922 4.816C12.2113 5.04933 12.4353 5.32933 12.594 5.656C12.7527 5.98267 12.832 6.33267 12.832 6.706C12.832 7.08867 12.7667 7.42 12.636 7.7C12.5147 7.97067 12.356 8.21333 12.16 8.428C11.9733 8.64267 11.768 8.84333 11.544 9.03C11.3293 9.20733 11.124 9.394 10.928 9.59C10.7413 9.77667 10.5827 9.98667 10.452 10.22C10.3307 10.444 10.27 10.7147 10.27 11.032V11.228C10.27 11.3307 10.2327 11.4193 10.158 11.494C10.0833 11.5687 9.99467 11.606 9.892 11.606H9.374C9.27133 11.606 9.18267 11.5687 9.108 11.494C9.03333 11.4193 8.996 11.3307 8.996 11.228V10.934C8.996 10.5607 9.05667 10.2387 9.178 9.968C9.30867 9.688 9.46733 9.44067 9.654 9.226C9.85 9.01133 10.0553 8.81533 10.27 8.638C10.494 8.45133 10.6993 8.26467 10.886 8.078C11.082 7.882 11.2407 7.67667 11.362 7.462C11.4927 7.24733 11.558 6.99533 11.558 6.706C11.558 6.47267 11.502 6.26733 11.39 6.09C11.2873 5.90333 11.1473 5.74933 10.97 5.628C10.7927 5.50667 10.5873 5.41333 10.354 5.348C10.13 5.28267 9.89667 5.25 9.654 5.25C9.16867 5.25 8.75333 5.37133 8.408 5.614C8.06267 5.85667 7.82467 6.24867 7.694 6.79C7.67533 6.89267 7.62867 6.972 7.554 7.028C7.47933 7.07467 7.40467 7.098 7.33 7.098H6.728C6.644 7.098 6.56933 7.07 6.504 7.014C6.43867 6.94867 6.41067 6.874 6.42 6.79Z" fill="#303030"/>
</svg>
