<svg width="30" height="30" viewBox="0 0 30 30" fill="none" xmlns="http://www.w3.org/2000/svg">
<path fill-rule="evenodd" clip-rule="evenodd" d="M15 0C6.72937 0 0 6.72937 0 15V29.0625C0 29.58 0.42 30 0.9375 30H15C23.2706 30 30 23.2706 30 15C30 6.72937 23.2706 0 15 0ZM15.9375 18.75H8.4375C7.92 18.75 7.5 18.33 7.5 17.8125C7.5 17.295 7.92 16.875 8.4375 16.875H15.9375C16.455 16.875 16.875 17.295 16.875 17.8125C16.875 18.33 16.455 18.75 15.9375 18.75ZM8.4375 13.125H21.5625C22.08 13.125 22.5 12.705 22.5 12.1875C22.5 11.67 22.08 11.25 21.5625 11.25H8.4375C7.92 11.25 7.5 11.67 7.5 12.1875C7.5 12.705 7.92 13.125 8.4375 13.125Z" fill="#FC9723"/>
</svg>
