<svg width="28" height="28" viewBox="0 0 28 28" fill="none" xmlns="http://www.w3.org/2000/svg">
<path d="M15.7591 0C16.2558 0 16.6937 0.312238 16.8603 0.77099L16.8962 0.888635L17.3201 2.58985L19.3052 3.41262L20.8067 2.50993C21.2294 2.25587 21.7609 2.29556 22.1398 2.59702L22.2391 2.68571L24.9705 5.41689C25.3193 5.76558 25.4093 6.29093 25.2084 6.73134L25.1463 6.84915L24.2436 8.3508L25.0664 10.3358L26.7676 10.7596C27.2496 10.8797 27.599 11.2884 27.6498 11.7739L27.6563 11.8968V15.7585C27.6563 16.2552 27.344 16.693 26.8852 16.8597L26.7676 16.8957L25.0664 17.3194L24.2436 19.3045L25.1463 20.8061C25.4004 21.2287 25.3606 21.7603 25.0592 22.1391L24.9705 22.2384L22.2391 24.9695C21.8904 25.3184 21.3649 25.4083 20.9245 25.2074L20.8067 25.1453L19.3052 24.2426L17.3201 25.0654L16.8962 26.7666C16.7762 27.2486 16.3674 27.598 15.8819 27.6488L15.7591 27.6552H11.8972C11.4004 27.6552 10.9626 27.343 10.796 26.8843L10.7601 26.7666L10.3362 25.0654L8.35106 24.2426L6.84958 25.1453C6.42696 25.3993 5.89533 25.3598 5.51647 25.0582L5.41713 24.9695L2.68571 22.2384C2.337 21.8897 2.24699 21.3643 2.44789 20.9239L2.50992 20.8061L3.41266 19.3045L2.58985 17.3194L0.888674 16.8957C0.406633 16.7755 0.0573004 16.3667 0.00640934 15.8813L0 15.7585V11.8968C0 11.4 0.312252 10.9622 0.771025 10.7955L0.888674 10.7596L2.58985 10.3358L3.41266 8.3508L2.50992 6.84915C2.25586 6.42656 2.29564 5.89495 2.59705 5.5162L2.68571 5.41689L5.41713 2.68571C5.76594 2.3368 6.29152 2.24697 6.73181 2.4479L6.84958 2.50993L8.35106 3.41262L10.3362 2.58985L10.7601 0.888635C10.88 0.406614 11.2889 0.0572979 11.7744 0.00640905L11.8972 0H15.7591Z" fill="#27C16A"/>
</svg>
