<svg width="62" height="61" viewBox="0 0 62 61" fill="none" xmlns="http://www.w3.org/2000/svg">
<path d="M45.4844 4C49.7492 4 53.2188 7.46945 53.2188 11.734C53.2188 13.9564 52.276 15.962 50.7697 17.3737C50.7395 17.4069 50.7072 17.4398 50.6726 17.4711C50.3295 17.7815 49.9617 18.0575 49.5748 18.2989C50.7807 19.0532 51.765 20.1304 52.4052 21.4084C52.6659 21.9298 52.8701 22.4849 53.0086 23.0653C53.1461 23.6408 53.2188 24.2412 53.2188 24.8583C53.2188 25.8113 53.0454 26.7245 52.7286 27.568C52.1261 29.1724 51.0067 30.5231 49.5749 31.4191C49.9617 31.6602 50.3295 31.9362 50.6726 32.2466C50.7068 32.2777 50.7389 32.3103 50.7686 32.3442C52.2755 33.7549 53.2188 35.7609 53.2188 37.9838C53.2188 42.2483 49.7492 45.7178 45.4844 45.7178H11.7344C8.12191 45.7178 5.07988 43.2283 4.23397 39.8749C4.08963 39.4373 4.00012 38.8161 4.00012 37.9827C4.00012 35.3129 5.36083 32.956 7.42436 31.5657L7.64612 31.421L7.42436 31.2764C5.36083 29.8862 4.00012 27.5293 4.00012 24.8595C4.00012 24.192 4.08517 23.5441 4.24498 22.926C4.7208 21.0845 5.85943 19.5079 7.38952 18.465L7.64612 18.297L7.42436 18.1521C5.36083 16.7618 4.00012 14.4049 4.00012 11.7351C4.00012 10.903 4.08935 10.2824 4.23298 9.84465C5.05749 6.57272 7.97374 4.12202 11.471 4.00442L11.7344 4H45.4844Z" fill="#0090F0"/>
<rect x="2" y="14" width="46" height="13" rx="6.5" fill="white"/>
<path fill-rule="evenodd" clip-rule="evenodd" d="M45.5708 14.2962C47.7592 15.6636 49.2188 18.0932 49.2188 20.8583C49.2188 23.6221 47.7606 26.0505 45.5737 27.4182C45.9611 27.6598 46.3292 27.936 46.6726 28.2466C47.1526 28.6811 47.1895 29.4219 46.7552 29.9018C46.3207 30.3818 45.5798 30.4187 45.0999 29.9844C44.1079 29.0866 42.8238 28.5922 41.4844 28.5922H7.7344C4.76191 28.5922 2.34375 31.0104 2.34375 33.9826C2.34375 36.9548 4.76203 39.373 7.7344 39.373H30.0001C30.6473 39.373 31.172 39.8977 31.172 40.5449C31.172 41.1921 30.6473 41.7168 30.0001 41.7168H7.73452C3.46974 41.7168 0.000117193 38.2473 0.000117193 33.9827C0.000117193 31.2176 1.45976 28.788 3.64811 27.4205C1.45976 26.053 0.000117193 23.6235 0.000117193 20.8583C0.000117193 18.0932 1.45976 15.6636 3.64811 14.2962C1.45976 12.9287 0.000117193 10.4992 0.000117193 7.73402C0.000117193 3.46945 3.46974 0 7.7344 0H41.4844C45.7492 0 49.2188 3.46945 49.2188 7.73402C49.2188 10.4992 47.7592 12.9287 45.5708 14.2962ZM7.73452 2.34363C4.76203 2.34363 2.34386 4.7618 2.34386 7.73402C2.34386 10.7062 4.76203 13.1244 7.7344 13.1244H41.4845C44.4569 13.1244 46.8752 10.7062 46.8752 7.73402C46.8752 4.7618 44.4569 2.34363 41.4845 2.34363H7.73452ZM41.4844 26.2487H7.7344C4.76191 26.2487 2.34375 23.8305 2.34375 20.8583C2.34375 17.8861 4.76191 15.4679 7.7344 15.4679H41.4844C44.4568 15.4679 46.8751 17.8861 46.8751 20.8583C46.8751 23.8305 44.4568 26.2487 41.4844 26.2487ZM28.8738 54.3184H31.2891C31.9363 54.3184 32.461 54.843 32.4608 55.4902C32.4608 56.1374 31.9361 56.662 31.2888 56.662H28.9059C28.4097 58.5796 26.6649 60 24.5943 60C22.1389 60 20.1412 58.0024 20.1412 55.5471C20.1412 53.4974 21.5339 51.7677 23.4225 51.2518V45.8977C23.4225 45.2504 23.9471 44.7258 24.5944 44.7258C25.2417 44.7258 25.7663 45.2504 25.7663 45.8977V51.2517C27.2623 51.6604 28.4458 52.8306 28.8738 54.3184ZM22.4852 55.5471C22.4852 56.7101 23.4315 57.6564 24.5945 57.6564C25.7577 57.6564 26.7039 56.7101 26.7039 55.5471C26.7039 54.3841 25.7575 53.4379 24.5945 53.4379C23.4315 53.4379 22.4852 54.3841 22.4852 55.5471ZM15.4688 54.3184H1.17193C0.524674 54.3184 0 54.843 0 55.4903C0 56.1375 0.524674 56.6621 1.17193 56.6621H15.4688C16.1161 56.6621 16.6407 56.1375 16.6407 55.4903C16.6407 54.843 16.1161 54.3184 15.4688 54.3184Z" fill="#303030"/>
<path fill-rule="evenodd" clip-rule="evenodd" d="M22.2898 6.32776H7.52264C6.87538 6.32776 6.35071 6.85241 6.35071 7.49963C6.35071 8.14686 6.87538 8.67151 7.52264 8.67151H22.2898C22.9371 8.67151 23.4617 8.14686 23.4617 7.49963C23.4617 6.85241 22.9371 6.32776 22.2898 6.32776ZM32.9812 6.67135C32.7634 6.4535 32.4621 6.32799 32.1527 6.32799C31.8445 6.32799 31.5421 6.45338 31.3241 6.67135C31.1061 6.88932 30.9807 7.19167 30.9807 7.49987C30.9807 7.80807 31.1061 8.11041 31.3241 8.32838C31.5421 8.54635 31.8445 8.67174 32.1527 8.67174C32.4609 8.67174 32.7632 8.54635 32.9812 8.32838C33.2004 8.11041 33.3246 7.80807 33.3246 7.49987C33.3246 7.19049 33.2004 6.88932 32.9812 6.67135ZM27.2122 6.32799C27.5204 6.32799 27.8227 6.45338 28.0407 6.67135C28.2587 6.88932 28.3841 7.19167 28.3841 7.49987C28.3841 7.80807 28.2587 8.11041 28.0407 8.32838C27.8227 8.54635 27.5204 8.67174 27.2122 8.67174C26.9028 8.67174 26.6016 8.54635 26.3836 8.32838C26.1644 8.11041 26.0402 7.80807 26.0402 7.49987C26.0402 7.19049 26.1644 6.88932 26.3836 6.67135C26.6004 6.45338 26.9028 6.32799 27.2122 6.32799ZM22.2898 19.4522H7.52264C6.87538 19.4522 6.35071 19.9768 6.35071 20.624C6.35071 21.2713 6.87538 21.7959 7.52264 21.7959H22.2898C22.9371 21.7959 23.4617 21.2713 23.4617 20.624C23.4617 19.9768 22.9371 19.4522 22.2898 19.4522ZM32.1527 19.4524C32.461 19.4524 32.7634 19.5767 32.9812 19.7958C33.2004 20.0137 33.3246 20.3149 33.3246 20.6243C33.3246 20.9325 33.2004 21.2348 32.9812 21.4528C32.7632 21.6708 32.4609 21.7962 32.1527 21.7962C31.8445 21.7962 31.5421 21.6708 31.3241 21.4528C31.1061 21.2337 30.9807 20.9325 30.9807 20.6243C30.9807 20.3161 31.1061 20.0137 31.3241 19.7958C31.5421 19.5766 31.8445 19.4524 32.1527 19.4524ZM28.0407 19.7958C27.8227 19.5778 27.5204 19.4524 27.2122 19.4524C26.9028 19.4524 26.6016 19.5778 26.3836 19.7958C26.1644 20.0137 26.0402 20.3149 26.0402 20.6243C26.0402 20.9325 26.1644 21.2348 26.3836 21.4528C26.6016 21.6708 26.9028 21.7962 27.2122 21.7962C27.5204 21.7962 27.8227 21.6708 28.0407 21.4528C28.2587 21.2348 28.3841 20.9325 28.3841 20.6243C28.3841 20.3149 28.2587 20.0137 28.0407 19.7958ZM7.52264 32.5765H22.2898C22.9371 32.5765 23.4617 33.1011 23.4617 33.7483C23.4617 34.3956 22.9371 34.9202 22.2898 34.9202H7.52264C6.87538 34.9202 6.35071 34.3956 6.35071 33.7483C6.35071 33.1011 6.87538 32.5765 7.52264 32.5765ZM32.9813 32.9202C32.7634 32.701 32.461 32.5768 32.1528 32.5768C31.8445 32.5767 31.5421 32.701 31.3242 32.9202C31.1063 33.1381 30.9809 33.4393 30.9809 33.7487C30.9809 34.0569 31.1063 34.3592 31.3242 34.5772C31.5422 34.7952 31.8446 34.9206 32.1528 34.9206C32.4622 34.9206 32.7634 34.7952 32.9813 34.5772C33.2005 34.3592 33.3247 34.0569 33.3247 33.7487C33.3247 33.4405 33.2005 33.1381 32.9813 32.9202ZM27.2122 32.5768C27.5204 32.5768 27.8216 32.701 28.0407 32.9202C28.2587 33.1381 28.3841 33.4405 28.3841 33.7487C28.3841 34.0569 28.2587 34.3592 28.0407 34.5772C27.8227 34.7952 27.5204 34.9206 27.2122 34.9206C26.9028 34.9206 26.6016 34.7952 26.3824 34.5772C26.1644 34.3592 26.0402 34.0569 26.0402 33.7487C26.0402 33.4393 26.1644 33.1381 26.3824 32.9202C26.6016 32.701 26.9028 32.5767 27.2122 32.5768Z" fill="#303030"/>
<path fill-rule="evenodd" clip-rule="evenodd" d="M36.0789 7.49964C36.0789 5.56112 37.656 3.98413 39.5945 3.98413C41.533 3.98413 43.1102 5.56112 43.1102 7.49964C43.1102 9.43815 41.533 11.0151 39.5945 11.0151C37.6559 11.0151 36.0789 9.43815 36.0789 7.49964ZM38.4226 7.49952C38.4226 8.14569 38.9483 8.6714 39.5945 8.6714C40.2407 8.6714 40.7665 8.14569 40.7665 7.49952C40.7665 6.85335 40.2407 6.32765 39.5945 6.32765C38.9483 6.32765 38.4226 6.85335 38.4226 7.49952Z" fill="#0090F0"/>
<path fill-rule="evenodd" clip-rule="evenodd" d="M36.0789 20.6241C36.0789 18.6856 37.656 17.1086 39.5945 17.1086C41.533 17.1086 43.1102 18.6856 43.1102 20.6241C43.1102 22.5626 41.533 24.1396 39.5945 24.1396C37.6559 24.1396 36.0789 22.5626 36.0789 20.6241ZM38.4226 20.624C38.4226 21.2701 38.9483 21.7958 39.5945 21.7958C40.2407 21.7958 40.7665 21.2701 40.7665 20.624C40.7665 19.9778 40.2407 19.4521 39.5945 19.4521C38.9483 19.4521 38.4226 19.9778 38.4226 20.624Z" fill="#0090F0"/>
<path d="M60.3515 35.1018C60.2769 35.084 52.8566 33.2708 48.9608 29.3463C48.7977 29.182 48.5867 29.0709 48.3611 29.0246C48.2843 29.0086 48.2046 29.0001 48.123 29C48.1218 29 48.1205 29 48.1194 29C47.947 29.0002 47.7837 29.0377 47.6368 29.1049C47.5085 29.163 47.3905 29.2445 47.2894 29.3464C43.4031 33.2612 35.9728 35.0842 35.8988 35.102C35.3716 35.2283 35 35.6996 35 36.2416V47.2153C35 52.0982 38.149 54.6251 41.5519 56.6285C44.5432 58.3894 47.5325 60.0127 47.5623 60.0289C47.7339 60.1219 47.926 60.1706 48.1211 60.1706H48.129C48.3242 60.1706 48.5162 60.1219 48.6878 60.0289C48.7176 60.0127 51.707 58.3896 54.6981 56.6285C58.1011 54.6251 61.25 52.0982 61.25 47.2153V36.2416C61.2502 35.6995 60.8785 35.2282 60.3515 35.1018Z" fill="#27C16A"/>
<path d="M53.213 41.343C52.7553 40.8857 52.0133 40.8857 51.5558 41.343L46.4574 46.4412L45.0006 44.9842C44.5429 44.5267 43.8009 44.5267 43.3432 44.9842C42.8856 45.4418 42.8856 46.1837 43.3432 46.6414L45.6289 48.927C45.8577 49.1557 46.1576 49.2702 46.4575 49.2702C46.7574 49.2702 47.0575 49.1557 47.2862 48.927L53.2133 43.0004C53.6706 42.5427 53.6707 41.8008 53.213 41.343Z" fill="white"/>
</svg>
