<svg width="24" height="23" viewBox="0 0 24 23" fill="none" xmlns="http://www.w3.org/2000/svg">
<path fill-rule="evenodd" clip-rule="evenodd" d="M4.7839 1.05598C4.7839 0.47184 5.25571 0 5.84045 0V0.00031456H7.15461C7.73935 0.00031456 8.21116 0.472155 8.21116 1.05629V4.48563C9.03338 4.48563 10.3309 4.14055 10.3309 2.66715V1.83829H13.6694V1.05629C13.6694 0.472155 14.1413 0.00031456 14.726 0.00031456H16.0398C16.6246 0.00031456 17.0964 0.472155 17.0964 1.05629V4.48594C17.9189 4.48594 19.2164 4.14087 19.2164 2.66747V1.8386H21.4248C22.8519 1.8386 24 3.02292 24 4.49443V20.3448C24 21.8154 22.8516 23 21.4248 23H2.57548C1.1484 23 0 21.8157 0 20.3448V4.4938C0 3.02261 1.14871 1.83797 2.57548 1.83797H4.7839V1.05598ZM19.2001 8.7045H16.5397C16.148 8.7045 15.8319 9.00271 15.8319 9.37294V12.1124C15.8319 12.4824 16.148 12.7809 16.5397 12.7809H19.2001C19.5932 12.7809 19.9078 12.4824 19.9078 12.1124V9.37294C19.9078 9.00239 19.5932 8.7045 19.2001 8.7045ZM4.80025 14.5748H7.46098C7.85227 14.5748 8.16839 14.8727 8.16839 15.2433V17.9821C8.16839 18.3527 7.85227 18.6506 7.46098 18.6506H4.80025C4.40707 18.6506 4.09253 18.3527 4.09253 17.9821V15.2433C4.09253 14.873 4.40707 14.5748 4.80025 14.5748ZM13.3304 14.5748H10.67C10.2787 14.5748 9.96223 14.873 9.96223 15.2433V17.9821C9.96223 18.3527 10.2787 18.6506 10.67 18.6506H13.3304C13.7235 18.6506 14.0381 18.3527 14.0381 17.9821V15.2433C14.0381 14.8727 13.7235 14.5748 13.3304 14.5748ZM19.2001 14.5748H16.5397C16.148 14.5748 15.8319 14.873 15.8319 15.2433V17.9821C15.8319 18.3527 16.148 18.6506 16.5397 18.6506H19.2001C19.5932 18.6506 19.9078 18.3527 19.9078 17.9821V15.2433C19.9078 14.8727 19.5932 14.5748 19.2001 14.5748ZM10.67 8.7045H13.3304C13.7235 8.7045 14.0381 9.00239 14.0381 9.37294V12.1124C14.0381 12.4824 13.7235 12.7809 13.3304 12.7809H10.67C10.2787 12.7809 9.96223 12.4824 9.96223 12.1124V9.37294C9.96223 9.00271 10.2787 8.7045 10.67 8.7045Z" fill="#E6E7E9"/>
</svg>
