<svg width="40" height="40" viewBox="0 0 40 40" fill="none" xmlns="http://www.w3.org/2000/svg">
<path fill-rule="evenodd" clip-rule="evenodd" d="M37.832 16.3897L39 17.5586C39.6453 18.2044 40.0013 19.0651 40 19.9845C40 20.9012 39.644 21.7632 38.9987 22.409L37.8307 23.5779C37.3507 24.0596 37.0627 25.1365 37.2387 25.7943L37.664 27.3929C37.9013 28.2722 37.78 29.1956 37.3213 29.9909C36.8627 30.7862 36.124 31.356 35.2413 31.5921L33.6467 32.0191C32.9907 32.1966 32.2013 32.9852 32.024 33.6444L31.5987 35.2376C31.1987 36.7348 29.8347 37.7796 28.2853 37.7796H28.284C27.9867 37.7796 27.6907 37.7409 27.4013 37.6635L25.808 37.2365C25.2 37.0764 24.0533 37.3713 23.5933 37.8303L22.424 38.9992C21.78 39.6437 20.9187 40 20.0013 40C19.084 40 18.2227 39.6437 17.5773 38.9952L16.4093 37.8276C15.9507 37.3686 14.808 37.0711 14.1947 37.2339L12.5987 37.6609C10.808 38.1386 8.88 37.019 8.40266 35.2363L7.97733 33.6391C7.8 32.9839 7.01066 32.194 6.35333 32.0178L4.76 31.5908C3.87733 31.3546 3.14 30.7862 2.68133 29.9922C2.22133 29.1983 2.09867 28.2736 2.336 27.3916L2.76267 25.7943C2.93867 25.1365 2.64933 24.0583 2.16933 23.5779L1.00133 22.409C0.356 21.7632 0 20.9012 0 19.9845C0 19.0678 0.356 18.2058 1 17.5599L2.168 16.391C2.648 15.9093 2.936 14.8325 2.76 14.1747L2.33467 12.5761C2.09733 11.6967 2.21867 10.7733 2.67733 9.97807C3.136 9.18278 3.87467 8.61434 4.75733 8.37816L6.35333 7.94983C7.00933 7.77369 7.79866 6.98508 7.97466 6.3259L8.40133 4.73133C8.87866 2.94728 10.8 1.82375 12.5987 2.30545L14.192 2.73379C14.8053 2.89658 15.948 2.59901 16.4067 2.13999L17.576 0.969752C18.868 -0.323251 21.1307 -0.323251 22.4227 0.969752L23.592 2.13866C24.0507 2.59768 25.1933 2.89524 25.8053 2.73245L27.4 2.30412C29.1987 1.82375 31.12 2.94728 31.5973 4.73L32.024 6.32724C32.2013 6.98241 32.9907 7.77236 33.6467 7.94849L35.2413 8.37683C36.124 8.61301 36.8613 9.18011 37.32 9.9754C37.78 10.7693 37.9027 11.6941 37.6653 12.5761L37.2387 14.1733C37.0627 14.8312 37.352 15.9093 37.832 16.3897ZM14.6667 10.6439C12.4613 10.6439 10.6667 12.44 10.6667 14.647C10.6667 16.8541 12.4613 18.6501 14.6667 18.6501C16.872 18.6501 18.6667 16.8541 18.6667 14.647C18.6667 12.44 16.872 10.6439 14.6667 10.6439ZM15.6093 26.2654C15.3493 26.5256 15.008 26.6563 14.6667 26.6563C14.3253 26.6563 13.984 26.5256 13.724 26.2654C13.2027 25.7436 13.2027 24.9003 13.724 24.3786L24.3907 13.7036C24.912 13.1819 25.7547 13.1819 26.276 13.7036C26.7973 14.2254 26.7973 15.0687 26.276 15.5904L15.6093 26.2654ZM21.3333 25.322C21.3333 27.529 23.128 29.3251 25.3333 29.3251C27.5387 29.3251 29.3333 27.529 29.3333 25.322C29.3333 23.1149 27.5387 21.3189 25.3333 21.3189C23.128 21.3189 21.3333 23.1149 21.3333 25.322Z" fill="#FC9723"/>
<ellipse cx="25.3333" cy="25.3219" rx="1.33333" ry="1.33437" fill="#FC9723"/>
<ellipse cx="14.6667" cy="14.647" rx="1.33333" ry="1.33437" fill="#FC9723"/>
</svg>
