<svg width="28" height="28" viewBox="0 0 28 28" fill="none" xmlns="http://www.w3.org/2000/svg">
<path d="M13.8281 0C6.20327 0 0 6.20297 0 13.8274C0 21.4519 6.20327 27.6548 13.8281 27.6548C21.4529 27.6548 27.6562 21.4519 27.6562 13.8274C27.6562 6.20297 21.4529 0 13.8281 0Z" fill="#27C16A"/>
<path d="M8 11.9287V18.2143C8 18.6482 8.33577 19 8.75 19H11V11.1429H8.75C8.33577 11.1429 8 11.4947 8 11.9287Z" fill="white"/>
<path d="M18.615 11.9285H16.3994C16.2057 11.9285 16.1086 11.7931 16.0761 11.7347C16.0435 11.6768 15.9775 11.5222 16.0713 11.345L16.8524 9.87137C17.0238 9.54872 17.0414 9.1693 16.9011 8.83053C16.7609 8.49139 16.484 8.24547 16.1416 8.15609L15.5908 8.01183C15.4568 7.97654 15.3147 8.02143 15.2213 8.13L12.2308 11.6104C11.9207 11.9722 11.75 12.4387 11.75 12.9244V17.0356C11.75 18.1186 12.5912 18.9998 13.625 18.9998L17.3556 18.9994C18.1979 18.9994 18.9417 18.4052 19.1639 17.5546L19.9645 13.7059C19.9879 13.5989 20 13.4891 20 13.3794C20 12.5795 19.3785 11.9285 18.615 11.9285L18.615 11.9285Z" fill="white"/>
</svg>
