<svg width="110" height="98" viewBox="0 0 110 98" fill="none" xmlns="http://www.w3.org/2000/svg">
<path opacity="0.3" d="M32.1493 77.2443C32.8822 77.2465 33.5441 76.8077 33.8256 76.1328C34.1071 75.4579 33.9526 74.6804 33.4344 74.1635C32.9161 73.6467 32.1364 73.4926 31.4597 73.7734C30.783 74.0541 30.3429 74.7142 30.3451 75.4451C30.3451 76.4388 31.1529 77.2443 32.1493 77.2443V77.2443Z" fill="#FC9723"/>
<path fill-rule="evenodd" clip-rule="evenodd" d="M29.9648 76.3428C30.3315 77.2227 31.1939 77.7952 32.1493 77.793C33.4495 77.793 34.5035 76.7418 34.5035 75.4452C34.5058 74.4924 33.9317 73.6323 33.0494 73.2667C32.1671 72.901 31.1509 73.102 30.4753 73.7757C29.7997 74.4495 29.5982 75.463 29.9648 76.3428ZM30.9817 74.9607C31.1784 74.4915 31.6394 74.1868 32.1493 74.1891C32.8429 74.1921 33.4035 74.7536 33.4034 75.4452C33.4034 75.9538 33.0959 76.4122 32.6246 76.6063C32.1532 76.8004 31.611 76.6919 31.2512 76.3315C30.8914 75.9711 30.785 75.4299 30.9817 74.9607Z" fill="#FC9723"/>
<path d="M32.1493 75.7468C32.3164 75.7468 32.4519 75.6118 32.4519 75.4451C32.4519 75.2785 32.3164 75.1434 32.1493 75.1434C31.9822 75.1434 31.8468 75.2785 31.8468 75.4451C31.8468 75.6118 31.9822 75.7468 32.1493 75.7468Z" fill="white"/>
<path opacity="0.3" d="M8.14926 45.2443C8.8822 45.2465 9.5441 44.8077 9.82562 44.1328C10.1071 43.4579 9.95265 42.6804 9.43438 42.1635C8.91612 41.6467 8.13641 41.4926 7.45969 41.7734C6.78297 42.0541 6.34288 42.7142 6.3451 43.4451C6.3451 44.4388 7.15285 45.2443 8.14926 45.2443V45.2443Z" fill="#FC9723"/>
<path fill-rule="evenodd" clip-rule="evenodd" d="M5.9648 44.3428C6.33145 45.2227 7.19392 45.7952 8.14933 45.793C9.44953 45.793 10.5035 44.7418 10.5035 43.4452C10.5058 42.4924 9.93166 41.6323 9.0494 41.2667C8.16714 40.901 7.15085 41.102 6.47527 41.7757C5.79969 42.4495 5.59815 43.463 5.9648 44.3428ZM6.98169 42.9607C7.17839 42.4915 7.63937 42.1868 8.14933 42.1891C8.84285 42.1921 9.40345 42.7536 9.40345 43.4452C9.40344 43.9538 9.09595 44.4122 8.62459 44.6063C8.15323 44.8004 7.61102 44.6919 7.25121 44.3315C6.8914 43.9711 6.78499 43.4299 6.98169 42.9607Z" fill="#FC9723"/>
<path d="M8.14933 43.7468C8.31641 43.7468 8.45186 43.6118 8.45186 43.4451C8.45186 43.2785 8.31641 43.1434 8.14933 43.1434C7.98225 43.1434 7.8468 43.2785 7.8468 43.4451C7.8468 43.6118 7.98225 43.7468 8.14933 43.7468Z" fill="white"/>
<path opacity="0.3" d="M87.5778 52.3351C88.7352 52.3351 89.7785 53.0307 90.2209 54.0972C90.6632 55.1637 90.4175 56.3911 89.5983 57.2064C88.7792 58.0218 87.548 58.2644 86.4794 57.8212C85.4108 57.378 84.7153 56.3362 84.7175 55.182C84.7175 54.426 85.0191 53.7011 85.5556 53.167C86.0922 52.6329 86.8197 52.3336 87.5778 52.3351Z" fill="#FC9723"/>
<path fill-rule="evenodd" clip-rule="evenodd" d="M84.5105 56.9245C85.1505 57.9966 86.3277 58.6331 87.5778 58.583C88.8278 58.6331 90.005 57.9966 90.645 56.9245C91.285 55.8525 91.285 54.5171 90.645 53.445C90.005 52.373 88.8278 51.7365 87.5778 51.7866C86.3277 51.7365 85.1505 52.373 84.5105 53.445C83.8705 54.5171 83.8705 55.8525 84.5105 56.9245ZM85.2676 55.1875C85.2676 53.9151 86.3019 52.8836 87.5778 52.8836C88.8537 52.8836 89.888 53.9151 89.888 55.1875C89.888 56.4599 88.8537 57.4914 87.5778 57.4914C86.3019 57.4914 85.2676 56.4599 85.2676 55.1875Z" fill="#FC9723"/>
<path d="M87.5779 54.7103C87.8065 54.7102 88.0033 54.8715 88.0475 55.0952C88.0918 55.319 87.9711 55.5427 87.7595 55.6291C87.5479 55.7156 87.3045 55.6407 87.1786 55.4504C87.0527 55.26 87.0794 55.0074 87.2423 54.8475C87.3315 54.7591 87.4522 54.7098 87.5779 54.7103Z" fill="white"/>
<g opacity="0.5">
<path fill-rule="evenodd" clip-rule="evenodd" d="M72.765 2.24237C78.381 -0.407079 83.1334 -0.599069 87.1543 1.09044C87.6149 1.28179 88.0647 1.49787 88.5019 1.73772C91.6592 3.47111 93.9364 6.57585 95.2455 10.8106C95.2941 10.9668 95.3427 11.123 95.3861 11.2844L94.965 11.1781L94.9673 11.1857L94.9375 11.1781C94.8935 11.0172 94.844 10.8581 94.789 10.7009C93.5019 6.68007 91.3127 3.73441 88.3094 2.08878C87.8785 1.85292 87.4361 1.63872 86.9838 1.44699C83.1609 -0.160236 78.645 -0.00664425 73.315 2.43436L72.765 2.24237ZM94.789 10.7009C94.844 10.8764 94.8898 11.0428 94.9265 11.2C92.0797 10.5369 89.178 10.1348 86.2577 9.99874L85.7076 9.54345H86.2302C89.1118 9.67597 91.976 10.0633 94.789 10.7009ZM95.3945 11.2948L95.3885 11.2933L94.9673 11.1857C96.0161 14.706 96.4059 19.0203 96.0651 23.9865C95.4655 33.3117 92.4458 43.9205 87.4403 54.4909L87.4439 54.4949L87.2643 54.8749L87.2749 54.8869L86.9122 55.626L86.8958 55.6373L86.888 55.6536C80.0321 60.2883 72.6995 64.1795 65.0148 67.2609C53.7553 71.8193 42.4023 74.5949 32.2044 75.2751H32.1875C28.7315 68.7359 26.2011 61.7505 24.6686 54.5183V54.4635C24.1076 51.9182 23.6785 49.395 23.3705 46.9155L23.2924 46.2819L23.2935 46.2792C22.3657 38.905 22.5995 31.4314 23.9866 24.1292H23.739H23.64C22.2111 31.6398 21.9978 39.3302 23.0083 46.9081L23.0075 46.9101C23.0075 46.926 23.0078 46.9419 23.0083 46.9579L23.002 46.9101C20.7838 52.0533 19.3024 57.4822 18.6016 63.0372C18.4421 64.414 18.3541 65.7799 18.3265 67.0689L18.5851 67.2774H18.5686L18.31 67.0689V67.5023L18.5686 67.7052V67.2774L18.5851 67.2902V67.7053C22.504 70.732 26.7647 73.291 31.2802 75.33C31.4299 75.4015 31.5867 75.4713 31.7395 75.5393L31.7397 75.5394C31.8564 75.5913 31.9707 75.6422 32.0778 75.692H32.0668C31.7918 75.5768 31.5222 75.4561 31.2582 75.33C28.7635 75.4781 26.2625 75.4891 23.7665 75.3629C22.2044 75.2824 20.7138 75.1453 19.2946 74.9515L19.3166 74.9515L19.2883 74.9478C18.7654 72.5698 18.5202 70.1395 18.5576 67.7052L18.299 67.5023C18.2614 69.9982 18.5235 72.4896 19.08 74.9233C16.0711 74.5367 13.1244 73.7663 10.3123 72.6311C5.85142 70.7551 2.77114 67.9795 1.33001 64.4305C-0.534657 59.8556 0.488436 54.2166 4.19577 48.1882L4.43229 47.8097L4.43901 47.822L4.20677 48.1936C5.02132 49.6716 5.92316 51.0999 6.90751 52.4712L6.91302 52.4887H6.90752L6.91728 52.5022C8.39352 57.1657 11.6975 61.7576 16.4014 65.906C17.0101 66.4436 17.6445 66.9757 18.3045 67.5023V67.0689C17.6885 66.5753 17.0944 66.0761 16.5169 65.5714C12.1165 61.7316 8.9702 57.453 7.36406 53.1195L6.91728 52.5022L6.91302 52.4887L7.36956 53.1195C7.21554 52.7027 7.07253 52.2858 6.95152 51.8689L6.96812 51.8936C7.08794 52.3041 7.22892 52.7146 7.38056 53.125L7.29805 52.3571C7.18311 52.2008 7.07314 52.0494 6.96812 51.8936L6.96252 51.8744L6.95152 51.8689L6.92455 51.8308C6.2691 49.6862 6.03509 47.4353 6.23569 45.2017L6.24196 45.1931C6.56099 44.7653 6.89102 44.3374 7.23755 43.9041C7.23755 43.7567 7.26669 43.4859 7.28941 43.2748C7.2946 43.2266 7.29946 43.1814 7.30355 43.1416C6.98091 43.5384 6.66351 43.93 6.36166 44.3215C6.41008 44.0123 6.46383 43.7031 6.52798 43.3939C6.6812 42.6675 6.88522 41.9526 7.13854 41.2546C6.82839 42.0583 6.58374 42.8856 6.40697 43.7285C6.35428 43.965 6.31169 44.1964 6.27436 44.4372C6.26699 44.4475 6.25981 44.4581 6.25296 44.4691C5.50612 45.4439 4.81959 46.4077 4.20431 47.3716C1.1592 41.5041 0.615519 36.2344 2.73814 32.1379C5.59262 26.5981 13.0116 23.7457 23.6369 24.0961L23.6345 24.1072H23.739H23.9767L23.9756 24.1127C28.0506 24.2985 32.1006 24.8492 36.0767 25.7583L36.3682 25.4292C32.333 24.4936 28.2213 23.9231 24.0833 23.7244C24.4071 22.2104 24.7801 20.7455 25.2132 19.3514C28.1834 9.54345 33.7995 2.64829 41.3241 0.953302C42.0524 0.79015 42.7913 0.678337 43.5353 0.618692C42.6705 0.668111 41.8113 0.789208 40.9666 0.980729C33.4419 2.67024 27.8259 9.57088 24.8336 19.3514C24.4116 20.7397 24.0387 22.1934 23.7368 23.7232H23.7202L23.7225 23.7123H23.717C12.8976 23.3338 5.31787 26.2685 2.38061 31.9404C0.185908 36.2245 0.76346 41.6825 3.96475 47.7548C0.0758979 53.9808 -0.985698 59.8227 0.928475 64.595C2.41361 68.2538 5.5764 71.1062 10.1473 73.0261C13.048 74.1985 16.0898 74.9877 19.1956 75.3738C19.1764 75.2998 19.1585 75.2244 19.1406 75.1489C19.1228 75.0738 19.105 74.9986 19.0858 74.9248L19.1086 74.9278C19.1275 75.0006 19.1451 75.0748 19.1626 75.1489C19.1805 75.2244 19.1984 75.2998 19.2176 75.3738L19.3983 75.3982L19.3991 75.4013L19.1956 75.3739C20.0136 78.8967 21.8181 82.1153 24.3991 84.6552C21.9016 82.0945 20.1701 78.8897 19.3991 75.4013C20.7853 75.5841 22.2337 75.7158 23.7445 75.7962C26.5182 75.9261 29.2972 75.8913 32.0668 75.692C34.0886 79.4421 36.5279 82.953 39.3385 86.1582C42.8918 90.157 46.7421 93.1027 50.708 94.7648C51.0744 94.923 51.4408 95.0648 51.8019 95.1959L51.7971 95.1981L51.8034 95.2003C46.2388 97.793 41.246 98.3024 37.2648 96.6298C36.8875 96.4688 36.5202 96.2857 36.1647 96.0813C33.5409 94.6551 31.5167 92.1482 30.1856 88.7802L29.6356 88.4401C30.9832 92.1482 33.1339 94.8909 35.9886 96.4543C36.3454 96.6562 36.7127 96.8393 37.0887 97.0028C41.2911 98.7581 46.5331 98.1822 52.3581 95.3846L52.3519 95.3825L52.5341 95.3023L51.9904 95.1126L51.9951 95.1104C51.6816 94.9952 51.368 94.8745 51.06 94.7428C47.0997 93.0972 43.2383 90.1296 39.696 86.1527C36.9391 83.0138 34.5408 79.579 32.5453 75.9114L32.0998 75.692H32.0778L31.8663 75.3025H31.8782L32.0778 75.6701H32.1218H32.4422L32.4518 75.6865L32.8864 75.6591L32.8831 75.6576C42.9551 74.8822 54.1141 72.1347 65.1578 67.6559C72.6272 64.6541 79.7676 60.8952 86.4667 56.4382C86.5523 56.292 86.6293 56.1457 86.7064 55.9995L86.7064 55.9994C86.7567 55.9041 86.8069 55.8087 86.8595 55.7134C86.8381 55.7584 86.8167 55.8039 86.7953 55.8494L86.7953 55.8495C86.702 56.048 86.6078 56.2482 86.5107 56.4218L87.1624 55.978L87.1516 56L86.5162 56.4327C85.7462 57.9833 84.9339 59.5302 84.0795 61.0734C79.8518 68.8149 74.6628 75.9943 68.6351 82.4419L68.5791 82.4445H68.5956L68.5786 82.4451C61.7744 82.6787 54.9678 82.0537 48.3208 80.585H48.2658C43.3926 79.5365 38.6245 78.0521 34.0191 76.15C33.8981 76.1 33.7772 76.0497 33.6564 75.9992L32.8809 75.6701L32.4408 75.692L32.1108 75.692L32.5425 75.881L32.5618 75.9169L33.5299 76.3283C38.2453 78.3037 43.1342 79.8389 48.1337 80.9141H48.1888C54.7747 82.3695 61.5175 82.9961 68.2596 82.7794L68.2546 82.7846H68.2611C65.401 85.772 62.2786 88.4982 58.9312 90.9305C56.753 92.5244 54.4331 93.9161 52.0006 95.0884L52.5506 95.2804C54.8733 94.13 57.0926 92.783 59.1842 91.2541C62.6558 88.7242 65.8872 85.8818 68.8376 82.7627H68.826L69.1384 82.4415L69.1404 82.4414L68.8541 82.7462C73.7123 82.5644 78.5282 81.7738 83.1884 80.393C88.8209 78.6651 93.4689 76.054 96.6921 72.7134C96.6904 72.709 96.6887 72.7045 96.6871 72.7C96.7256 72.6584 96.7645 72.6174 96.8033 72.5765L96.804 72.5758L96.8041 72.5757C96.8747 72.5013 96.945 72.4273 97.0112 72.3514L97.0114 72.3453C98.6012 70.6465 99.837 68.6498 100.647 66.471C99.8136 68.5822 98.5806 70.5137 97.0154 72.1602C96.463 67.8182 94.1313 62.8905 90.119 57.6999C89.4965 56.9011 88.8414 56.1059 88.1538 55.3144C92.637 52.211 96.7818 48.6478 100.52 44.683C108.705 35.8515 111.731 27.3601 109.046 20.7721C107.556 17.0859 104.398 14.2554 99.8274 12.3081C98.3402 11.6943 96.8085 11.1937 95.2455 10.8106C95.2941 10.9614 95.3427 11.1228 95.3861 11.2844L95.4215 11.2933H95.394L95.3945 11.2948ZM87.8741 54.9902C92.3437 51.8932 96.4771 48.3395 100.207 44.3868C108.265 35.6924 111.263 27.3601 108.645 20.9366C107.198 17.3547 104.123 14.5845 99.6624 12.7085C98.2773 12.1312 96.8506 11.6587 95.3945 11.2948C96.4062 14.8052 96.7966 19.1052 96.4666 24.014C95.8616 33.4269 92.8033 44.1564 87.7318 54.82L87.5166 54.5771L87.4458 54.4909L87.4439 54.4949L87.5166 54.5771L87.7208 54.8255C87.6623 54.9422 87.6038 55.0589 87.5503 55.1805L87.2808 54.8749L87.2749 54.8869L87.543 55.1909L86.9122 55.626L86.9013 55.6483L87.5575 55.1957L87.5592 55.1976C87.4388 55.4539 87.313 55.7101 87.1873 55.961L87.1712 55.972H87.1653L87.1624 55.978L87.1712 55.972H87.1873H87.1928L87.1516 56C86.292 57.7624 85.3727 59.5194 84.437 61.2873C80.2565 68.9212 75.1479 76.0118 69.2271 82.3987L69.1787 82.4007L69.1404 82.4414L69.1897 82.4391L69.2271 82.3987C74.0022 82.2006 78.7342 81.4127 83.3149 80.0529C88.85 78.3553 93.4422 75.8213 96.6537 72.5383C96.6563 72.5526 96.6586 72.567 96.6609 72.5813L96.6646 72.6042V72.7244L96.6871 72.7C96.6764 72.6693 96.6701 72.6371 96.6646 72.6042V72.5379L96.6636 72.5281L96.6701 72.5214L96.6636 72.528C96.1936 68.1749 93.8783 63.2032 89.811 57.9412C89.1852 57.131 88.5266 56.3263 87.835 55.527L87.8418 55.5222L87.8376 55.5174L88.1283 55.3125L88.1389 55.3247L88.1538 55.3144L88.1431 55.3021L88.1499 55.2973H88.1389L88.1431 55.3021L88.1283 55.3125L88.1194 55.3023L88.1499 55.2808L87.8741 54.9902ZM87.8671 54.9828L87.8741 54.9902L87.8583 55.001L88.1194 55.3023L87.8308 55.5057L87.5592 55.1976L87.5613 55.193L87.5564 55.1833L87.582 55.1656L87.5723 55.1875L87.8671 54.9828ZM87.8671 54.9828L87.8803 54.9736L87.7483 54.82C87.6914 54.9337 87.6344 55.0473 87.582 55.1656L87.8583 54.9736L87.8671 54.9828ZM87.5541 55.1849L87.5564 55.1833L87.5558 55.1821L87.5532 55.1839L87.5503 55.1805L87.5469 55.1882L87.543 55.1909L87.5448 55.193L87.5469 55.1882L87.5532 55.1839L87.5541 55.1849ZM87.5541 55.1849L87.5503 55.1875L87.5575 55.1957L87.5613 55.193L87.5541 55.1849ZM87.8376 55.5174L87.5613 55.204C87.4403 55.4618 87.3138 55.7196 87.1873 55.972L87.1877 55.9717L87.188 55.9715C87.4055 55.8251 87.6229 55.6787 87.835 55.527L87.8308 55.5222L87.8376 55.5174ZM96.6636 72.528L96.6536 72.5379L96.6537 72.5383L96.6636 72.5281L96.6636 72.528ZM97.0154 72.1602L97.0057 72.1704V72.1824V72.3514L97.0114 72.3453L97.0167 72.1704L97.0154 72.1602ZM68.826 82.7627H68.2821L68.2611 82.7846H68.8046L68.826 82.7627ZM32.5425 75.881L32.5618 75.8895L32.5584 75.8839L32.4408 75.692L32.5425 75.881ZM68.2596 82.7794L68.2915 82.7462L68.3565 82.6789L68.3607 82.6747L68.3633 82.672C68.4364 82.5966 68.5087 82.5221 68.5786 82.4451C68.5272 82.5018 68.4744 82.5571 68.4224 82.6117C68.3687 82.668 68.3157 82.7236 68.2656 82.7792L68.2596 82.7794ZM69.1384 82.4415L68.6121 82.4665L68.6351 82.4419L69.1622 82.4171L69.1384 82.4415ZM32.3095 75.4132C32.3544 75.5006 32.4031 75.5875 32.4518 75.6701H32.4422C32.3927 75.5857 32.3436 75.4971 32.2986 75.4084L32.3095 75.4132ZM32.303 75.4005L32.8831 75.6576L32.8644 75.6591L32.3095 75.4132L32.303 75.4005ZM32.2879 75.3775L32.2263 75.2751H32.2044L32.252 75.3624L32.0709 75.2861H32.1933L32.1875 75.2751H32.0448L31.987 75.2751L31.8825 75.2288L31.8054 75.1912L31.7973 75.1764L31.7542 75.1572C28.3329 68.6604 25.8247 61.7248 24.3001 54.5457V54.4909C23.794 52.1687 23.3925 49.863 23.0955 47.5738C23.0872 47.5171 23.0774 47.4607 23.0675 47.4045L23.0083 46.9579C23.0131 47.0967 23.0377 47.2358 23.0626 47.3763L23.0675 47.4045L23.09 47.5738C20.9639 52.5941 19.5406 57.8822 18.8601 63.2895C18.7061 64.6499 18.5851 65.9828 18.5851 67.2774L18.5851 67.2902C22.642 70.4305 27.0636 73.0719 31.7542 75.1572L31.7643 75.1764L31.7894 75.1875L31.8497 75.2978L31.8523 75.3025H31.8663L31.8633 75.2971L31.8078 75.1957L31.8825 75.2288L31.9775 75.2751H31.8633L31.8782 75.3025H32.0338L31.9775 75.2751H31.987L32.0118 75.2861H32.0696L32.2553 75.3684L32.2703 75.3958L32.2986 75.4084L32.2923 75.3958L32.303 75.4005L32.2923 75.3793L32.2879 75.3775ZM32.2879 75.3775L32.2923 75.3848L32.2553 75.3684L32.252 75.3624L32.2879 75.3775ZM31.8078 75.1957L31.7894 75.1875L31.7863 75.1819L31.8054 75.1912L31.8078 75.1957ZM32.0696 75.2861H32.0709L32.0451 75.2753L32.0696 75.2861ZM51.8081 95.1981L51.8019 95.1959L51.9841 95.1104L51.9904 95.1126L51.8081 95.1981ZM51.8081 95.1981L51.8034 95.2003L52.3471 95.3846L52.3519 95.3825L51.8081 95.1981ZM19.3983 75.3982C19.3661 75.2737 19.3376 75.1454 19.3098 75.0198L19.2987 74.9696C19.3304 75.1121 19.3631 75.2592 19.4212 75.4013L19.3983 75.3982ZM3.96745 47.7504C4.04274 47.6272 4.12321 47.5041 4.20374 47.381L4.20664 47.3765L4.20677 47.3763L4.20431 47.3716L4.20127 47.3763C4.11973 47.501 4.04356 47.6257 3.96745 47.7504ZM24.0581 23.7232H23.7555H23.7368L23.7335 23.7397H23.772H24.0546L23.9767 24.1072H23.9866L24.0655 23.7397H24.0801L24.0833 23.7244L24.069 23.7238L24.0691 23.7232H24.0581ZM24.0581 23.7232L24.0546 23.7397H24.0655L24.069 23.7238L24.0581 23.7232ZM23.7202 23.7232L23.64 24.0962L23.6369 24.0961L23.717 23.7232H23.7202ZM6.25296 44.4691C6.22032 44.6571 6.19247 44.8356 6.1694 45.0265C6.19366 44.8394 6.22102 44.6531 6.25296 44.4691ZM6.13819 45.3272C6.14738 45.222 6.15778 45.1227 6.1694 45.0265C6.15606 45.1294 6.14366 45.2326 6.13195 45.3358C5.51589 46.1695 4.94934 46.9942 4.43229 47.8097L4.44329 47.8152L4.43901 47.822C5.09133 49.0192 5.80351 50.1829 6.57287 51.3089L6.58849 51.3697L6.59912 51.3856C6.68885 51.7489 6.79321 52.1077 6.90751 52.4712L6.92402 52.4942C6.8094 52.1305 6.70465 51.7717 6.61445 51.4086C6.72366 51.5722 6.83602 51.7421 6.95152 51.9182L6.92455 51.8308C6.81474 51.6756 6.70781 51.5203 6.60375 51.3651L6.59949 51.3478L6.57287 51.3089C6.07627 49.3591 5.92697 47.3373 6.13195 45.3358L6.13819 45.3272ZM6.60375 51.3651L6.61445 51.4086L6.59912 51.3856L6.58849 51.3423L6.60375 51.3651ZM6.13819 45.3272L6.13745 45.3358L6.23569 45.2017L6.23646 45.1931L6.13819 45.3272ZM6.34097 44.3484L6.36166 44.3215L6.35747 44.3484C6.35201 44.356 6.34526 44.3636 6.33794 44.3713L6.34097 44.3484ZM6.33779 44.3714L6.34097 44.3484C6.33102 44.3623 6.32036 44.3761 6.30949 44.3903C6.29779 44.4055 6.28586 44.4211 6.27436 44.4372L6.27178 44.4539C6.27028 44.4589 6.26946 44.4639 6.26946 44.4691L6.27178 44.4539C6.27883 44.4305 6.30091 44.4084 6.32243 44.387L6.32246 44.3869L6.33179 44.3776L6.33779 44.3714ZM6.32844 44.4392C6.32026 44.4956 6.31158 44.5511 6.30299 44.6061C6.27186 44.8052 6.24196 44.9965 6.24196 45.1931C6.26157 44.9291 6.29429 44.6869 6.32844 44.4392ZM6.32844 44.4392L6.33295 44.4065L6.33779 44.3714L6.33794 44.3713C6.33488 44.3941 6.3317 44.4167 6.32844 44.4392ZM19.0858 74.9248L19.0856 74.924L19.08 74.9233L19.0801 74.924L19.0858 74.9248ZM19.1086 74.9278L19.1076 74.924L19.2883 74.9478L19.2891 74.9515L19.1086 74.9278ZM23.0083 46.9081L23.013 46.943L23.2924 46.2819L23.288 46.2463L23.0083 46.9081ZM86.8595 55.7134L86.8733 55.6883L86.8958 55.6483L86.888 55.6536L86.8595 55.7134ZM80.1907 5.59944C74.2446 3.10358 66.6924 3.98125 58.8432 7.61807C51.2305 11.1452 43.3318 17.2724 36.3792 25.4292L36.0932 25.7638L36.4892 25.8516L36.7697 25.5225C43.6893 17.4424 51.5386 11.3701 59.0962 7.8704C66.951 4.22809 74.4976 3.35043 80.4602 5.85177C81.5673 6.31025 82.619 6.89172 83.5955 7.58516C84.2051 8.01422 84.7823 8.48723 85.3226 9.0004C83.8471 7.55085 82.107 6.39642 80.1962 5.59944H80.1907ZM36.0932 25.7748L36.4782 25.8516H36.4837C35.1086 27.4716 33.7719 29.1702 32.4738 30.9475L32.4408 30.9914C28.8305 35.9489 25.7916 41.2961 23.3815 46.932L23.299 46.2628C25.6951 40.786 28.6831 35.5862 32.2098 30.7555L32.2428 30.7116C33.4823 28.9965 34.7657 27.3509 36.0932 25.7748ZM59.3933 96.2678C57.0747 96.393 54.754 96.065 52.5617 95.3023L52.3856 95.3846C54.6377 96.1482 57.0215 96.4486 59.3933 96.2678ZM52.5341 30.7116C47.4369 28.5451 42.1627 26.8182 36.7697 25.5499L36.4892 25.879C41.9249 27.1416 47.2415 28.8686 52.3801 31.0408C54.947 32.1379 57.5139 33.3337 60.0808 34.6282C71.0818 40.2617 80.5702 47.3544 87.2368 54.8639L87.4183 54.4799C80.7352 46.9923 71.2358 39.9107 60.2458 34.2772C57.6661 32.9607 55.0974 31.7648 52.5341 30.7116ZM97.0332 72.3514L97.0238 72.3622L97.0222 72.3514H97.0332ZM97.0238 72.3622C97.3971 74.9141 96.9862 77.519 95.8451 79.8335C94.2279 82.9766 91.1751 85.2915 86.8958 86.6628C85.5147 87.1284 84.0984 87.4824 82.6604 87.7215L83.4524 87.173C89.4315 86.0814 93.5129 83.4868 95.482 79.647C96.5513 77.5058 96.97 75.0997 96.6866 72.7244C96.7326 72.6742 96.7794 72.6249 96.826 72.5758L96.8261 72.5757C96.8934 72.5048 96.9603 72.4343 97.0238 72.3622Z" fill="white"/>
</g>
<path d="M63.427 32.8256C58.773 27.1738 54.179 23.5004 53.986 23.347C52.9373 22.514 51.4 23.2752 51.4 24.6267V31.7724C51.4 35.4622 46.5919 36.7608 44.79 33.5537C44.2297 32.5591 42.8673 32.4543 42.162 33.3293C37.3199 39.3306 33 46.8975 33 54.6882C33 65.8881 41.972 75 53 75C64.028 75 73 65.8881 73 54.6882C73 46.6959 68.4561 38.9335 63.427 32.8256Z" fill="#FC9723"/>
<path d="M57.1708 45.968C55.3092 43.6856 53.4716 42.2021 53.3944 42.1402C52.9749 41.8037 52.36 42.1112 52.36 42.6569V45.5427C52.36 47.0328 50.4368 47.5572 49.716 46.2621C49.4919 45.8604 48.9469 45.8181 48.6648 46.1714C46.728 48.5951 45 51.6509 45 54.7972C45 59.3202 48.5888 63 53 63C57.4112 63 61 59.3202 61 54.7972C61 51.5695 59.1824 48.4347 57.1708 45.968Z" fill="white"/>
</svg>
