<svg width="376" height="6" viewBox="0 0 376 6" fill="none" xmlns="http://www.w3.org/2000/svg">
<rect x="361" width="15" height="6" fill="#E6E7E9"/>
<rect x="342" width="15" height="6" fill="#E6E7E9"/>
<rect x="323" width="15" height="6" fill="#E6E7E9"/>
<rect x="304" width="15" height="6" fill="#E6E7E9"/>
<rect x="285" width="15" height="6" fill="#E6E7E9"/>
<rect x="266" width="15" height="6" fill="#E6E7E9"/>
<rect x="247" width="15" height="6" fill="#E6E7E9"/>
<rect x="228" width="15" height="6" fill="#E6E7E9"/>
<rect x="209" width="15" height="6" fill="#27C16A"/>
<rect x="190" width="15" height="6" fill="#27C16A"/>
<rect x="171" width="15" height="6" fill="#27C16A"/>
<rect x="152" width="15" height="6" fill="#27C16A"/>
<rect x="133" width="15" height="6" fill="#27C16A"/>
<rect x="114" width="15" height="6" fill="#27C16A"/>
<rect x="95" width="15" height="6" fill="#27C16A"/>
<rect x="76" width="15" height="6" fill="#27C16A"/>
<rect x="57" width="15" height="6" fill="#27C16A"/>
<rect x="38" width="15" height="6" fill="#27C16A"/>
<rect x="19" width="15" height="6" fill="#27C16A"/>
<rect width="15" height="6" fill="#27C16A"/>
</svg>
