<svg width="32" height="30" viewBox="0 0 32 30" fill="none" xmlns="http://www.w3.org/2000/svg">
<path fill-rule="evenodd" clip-rule="evenodd" d="M27.5445 6.58831C24.8934 2.49794 20.3665 0.0177165 15.4981 0C7.46842 0 0.95653 6.71515 0.95653 15C0.95653 15.0299 0.956746 15.0601 0.957168 15.0908L0.962113 15.2797C0.963327 15.3119 0.964729 15.3444 0.966311 15.3773L0.977887 15.578L1.00239 15.8899L1.02285 16.1028L1.0461 16.3181L1.07171 16.5341L1.1136 16.8564L1.15837 17.1719L1.21998 17.5735L1.32338 18.19L1.44839 18.8727L1.49471 18.8068C1.60896 19.2867 1.74685 19.7573 1.90698 20.2175L1.79239 20.3727C0.250421 22.4939 -0.319897 24.2758 0.171965 25.2667C0.625249 26.1799 2.10877 26.4162 4.30369 26.0112L4.58773 25.9561C4.68368 25.9365 4.7809 25.9158 4.87935 25.8939C4.50485 25.4143 4.18878 24.8914 3.93788 24.3364L4.38203 24.8007L4.63003 25.0519L5.38329 25.7758L5.52771 25.9194C8.19217 28.5312 11.7694 29.9974 15.4981 30C16.1427 30 16.7775 29.9568 17.3999 29.8735C24.5789 28.9918 30.1388 22.8509 30.1388 15.4065C30.1388 14.3739 30.0319 13.3664 29.8284 12.3946L29.8225 12.4C31.5908 10.6303 32.3512 9.14242 31.8473 8.13636C31.4278 7.30606 30.1182 6.81818 28.187 6.76061C28.3742 7.33389 28.4967 7.9265 28.5521 8.52727L28.2176 7.86088L27.6468 6.74848L27.5445 6.58831ZM14 20L20 15L14 10V20Z" fill="#0090F0"/>
</svg>
