<svg version="1.2" xmlns="http://www.w3.org/2000/svg" viewBox="0 0 64 56" width="64" height="56">
	<title>networking-svg</title>
	<style>
		.s0 { fill: #303030 } 
		.s1 { fill: #0090f0 } 
		.s2 { fill: #ffffff } 
		.s3 { fill: #27c16a } 
	</style>
	<path id="Layer" class="s0" d="m60 52.5c0 0.6-0.5 1.2-1.2 1.2h-21.7c-0.7 0-1.2-0.6-1.2-1.2 0-0.7 0.5-1.2 1.2-1.2h21.7c0.7 0 1.2 0.5 1.2 1.2z"/>
	<path id="Layer" class="s0" d="m24.2 52.5c0 0.6-0.5 1.2-1.2 1.2h-21.8c-0.7 0-1.2-0.6-1.2-1.2 0-0.7 0.5-1.2 1.2-1.2h21.8c0.7 0 1.2 0.5 1.2 1.2z"/>
	<path id="Layer" class="s1" d="m64 40v0.9c0 3.6-2.9 6.6-6.5 6.6h-46c-3.6 0-6.5-3-6.5-6.6v-0.9c0-0.7 0.5-1.2 1.2-1.2h1.8v-31.6c0-0.7 0.6-1.2 1.2-1.2h50.6c0.6 0 1.2 0.5 1.2 1.2v31.6h1.8c0.7 0 1.2 0.5 1.2 1.2z"/>
	<path id="Layer" fill-rule="evenodd" class="s0" d="m31.2 45.8v3.4c1.3 0.5 2.3 1.8 2.3 3.3 0 1.9-1.6 3.5-3.5 3.5-1.9 0-3.5-1.6-3.5-3.5 0-1.5 1-2.8 2.3-3.3v-3.4c0-0.6 0.6-1.2 1.2-1.2 0.6 0 1.2 0.6 1.2 1.2zm-2.4 6.7c0 0.6 0.6 1.2 1.2 1.2 0.6 0 1.2-0.6 1.2-1.2 0-0.7-0.6-1.2-1.2-1.2-0.6 0-1.2 0.5-1.2 1.2z"/>
	<path id="Layer" fill-rule="evenodd" class="s0" d="m60 34v0.9c0 3.6-2.9 6.6-6.5 6.6h-47c-3.6 0-6.5-3-6.5-6.6v-0.9c0-0.7 0.5-1.2 1.2-1.2h1.8v-31.6c0-0.7 0.6-1.2 1.2-1.2h51.6c0.6 0 1.2 0.5 1.2 1.2v31.6h1.8c0.7 0 1.2 0.5 1.2 1.2zm-54.6-1.2h2.1v-26.9c0-0.7 0.5-1.2 1.2-1.2h17.5c0.7 0 1.2 0.5 1.2 1.2 0 0.6-0.5 1.1-1.2 1.1h-16.4v25.8h12.3c0.5 0 0.9 0.3 1.1 0.7 0.3 0.8 1.1 1.3 1.9 1.3h9.8c0.8 0 1.6-0.5 1.9-1.3 0.2-0.4 0.6-0.7 1.1-0.7h12.3v-25.8h-16.2c-0.7 0-1.2-0.5-1.2-1.1 0-0.7 0.5-1.2 1.2-1.2h17.3c0.7 0 1.2 0.5 1.2 1.2v26.9h2.1v-30.5h-49.2zm1.1 6.4h47c2.2 0 4-1.8 4.2-4h-19.1c-0.8 1.2-2.2 2-3.7 2h-9.8c-1.5 0-2.9-0.8-3.7-2h-19.1c0.2 2.2 2 4 4.2 4z"/>
	<path id="Layer" class="s0" d="m31.2 5.9c0 0.6-0.5 1.1-1.2 1.1-0.7 0-1.2-0.5-1.2-1.1 0-0.7 0.5-1.2 1.2-1.2 0.7 0 1.2 0.5 1.2 1.2z"/>
	<path id="Layer" class="s2" d="m47.6 11.7v8.2c0 0.7-0.5 1.2-1.2 1.2h-32.8c-0.7 0-1.2-0.5-1.2-1.2v-8.2c0-0.6 0.5-1.1 1.2-1.1h32.8c0.7 0 1.2 0.5 1.2 1.1z"/>
	<path id="Layer" fill-rule="evenodd" class="s0" d="m13.6 10.6h32.8c0.7 0 1.2 0.5 1.2 1.1v8.2c0 0.7-0.5 1.2-1.2 1.2h-32.8c-0.7 0-1.2-0.5-1.2-1.2v-8.2c0-0.6 0.5-1.1 1.2-1.1zm1.2 8.1h30.4v-5.8h-30.4z"/>
	<path id="Layer" class="s0" d="m42.9 24.1c0 0.7-0.5 1.2-1.2 1.2h-9c-0.7 0-1.2-0.5-1.2-1.2 0-0.6 0.5-1.1 1.2-1.1h9c0.7 0 1.2 0.5 1.2 1.1z"/>
	<path id="Layer" class="s0" d="m47.6 24.1c0 0.3-0.1 0.6-0.4 0.9-0.2 0.2-0.5 0.3-0.8 0.3-0.3 0-0.6-0.1-0.8-0.3-0.2-0.3-0.4-0.6-0.4-0.9 0-0.3 0.2-0.6 0.4-0.8 0.2-0.2 0.5-0.3 0.8-0.3 0.3 0 0.6 0.1 0.8 0.3 0.3 0.2 0.4 0.5 0.4 0.8z"/>
	<path id="Layer" class="s0" d="m42.9 28.8c0 0.7-0.5 1.2-1.2 1.2h-9c-0.7 0-1.2-0.5-1.2-1.2 0-0.6 0.5-1.1 1.2-1.1h9c0.7 0 1.2 0.5 1.2 1.1z"/>
	<path id="Layer" class="s0" d="m47.6 28.8c0 0.4-0.1 0.7-0.4 0.9-0.2 0.2-0.5 0.3-0.8 0.3-0.3 0-0.6-0.1-0.8-0.3-0.2-0.2-0.4-0.5-0.4-0.9 0-0.3 0.2-0.6 0.4-0.8 0.2-0.2 0.5-0.3 0.8-0.3 0.3 0 0.6 0.1 0.8 0.3 0.3 0.2 0.4 0.5 0.4 0.8z"/>
	<path id="Layer" class="s0" d="m28.5 24.1v4.7c0 0.7-0.5 1.2-1.2 1.2-0.6 0-1.1-0.5-1.1-1.2v-3.5h-11.4v3.5c0 0.7-0.6 1.2-1.2 1.2-0.7 0-1.2-0.5-1.2-1.2v-4.7c0-0.6 0.5-1.1 1.2-1.1h13.7c0.7 0 1.2 0.5 1.2 1.1z"/>
	<path id="Layer" class="s3" d="m51.8 28c0.5 0 0.9 0.3 1.1 0.8v0.1l0.4 1.7 2 0.8 1.5-0.9c0.4-0.2 1-0.2 1.3 0.1l0.1 0.1 2.8 2.7c0.3 0.4 0.4 0.9 0.2 1.3l-0.1 0.1-0.9 1.6 0.9 1.9 1.7 0.5c0.4 0.1 0.8 0.5 0.8 1l0.1 0.1v3.9c0 0.5-0.4 0.9-0.8 1.1h-0.1l-1.7 0.4-0.9 2 0.9 1.5c0.3 0.4 0.3 1 0 1.3l-0.1 0.1-2.8 2.8c-0.3 0.3-0.8 0.4-1.3 0.2l-0.1-0.1-1.5-0.9-2 0.9-0.4 1.7c-0.1 0.4-0.5 0.8-1 0.8l-0.1 0.1h-3.9c-0.5 0-0.9-0.4-1.1-0.8v-0.1l-0.5-1.7-1.9-0.9-1.6 0.9c-0.4 0.3-0.9 0.3-1.3 0l-0.1-0.1-2.7-2.8c-0.4-0.3-0.5-0.8-0.3-1.3l0.1-0.1 0.9-1.5-0.8-2-1.7-0.4c-0.5-0.1-0.8-0.5-0.9-1v-0.1-3.9c0-0.5 0.3-0.9 0.8-1.1h0.1l1.7-0.5 0.8-1.9-0.9-1.6c-0.2-0.4-0.2-0.9 0.1-1.3l0.1-0.1 2.7-2.7c0.4-0.4 0.9-0.5 1.3-0.3l0.1 0.1 1.6 0.9 1.9-0.8 0.5-1.7c0.1-0.5 0.5-0.8 1-0.9h0.1z"/>
	<path id="Layer" class="s2" d="m54.8 41.9c0 2.7-2.2 4.9-4.9 4.9-2.7 0-4.9-2.2-4.9-4.9 0-2.7 2.2-4.9 4.9-4.9 2.7 0 4.9 2.2 4.9 4.9z"/>
</svg>