<svg version="1.2" xmlns="http://www.w3.org/2000/svg" viewBox="0 0 110 110" width="110" height="110">
	<title>Onehost_logo_img-svg</title>
	<defs>
		<clipPath clipPathUnits="userSpaceOnUse" id="cp1">
			<path d="m16.08 12.81h84.86v79.24h-84.86z"/>
		</clipPath>
	</defs>
	<style>
		.s0 { fill: #0090f0 } 
		.s1 { fill: #ffffff } 
		.s2 { opacity: .3;fill: #0eaaff } 
		.s3 { fill: #0eaaff } 
	</style>
	<g id="Clip-Path" clip-path="url(#cp1)">
		<g id="Layer">
			<path id="Layer" class="s0" d="m95.6 48.7q0.1 1.9 0.1 3.7c0 21.9-17.2 39.6-38.5 39.6-10.1 0-19.7-4-26.8-11.1l-1.9-1.8c-0.5-0.5-2-2-2-2q1 2.2 2.5 4.1c-6.6 1.5-11.1 1-12.5-1.7-1.3-2.6 0.3-7.3 4.3-12.9 4.7-6.3 12.7-13.8 23.5-20.5l-3-3.4c-10.2 7.1-17.2 14.1-21.4 20 0-0.3-1.3-6.6-1.3-10.3 0-21.9 17.3-39.6 38.6-39.6 13.1 0.1 25.2 6.8 32.2 17.8l1.3 2.6c0.4 0.7 1.1 2.1 1.1 2.1q-0.2-2.4-1-4.6c5.1 0.1 8.6 1.4 9.7 3.6 1.4 2.7-0.7 6.6-5.3 11.3-5.6 5.5-15 12.1-27.1 18.9l2.3 3.2c12.3-7.1 20.6-13.6 25.2-19z"/>
		</g>
	</g>
	<path id="Layer" class="s1" d="m50 43.3l-7.5 5.3-3.8-5.4 8.5-4z"/>
	<path id="Layer" class="s1" d="m46.2 39.5l-5.4 1.3z"/>
	<path id="Layer" class="s1" d="m40.7 40.6l5.4-1.3 0.1 0.4-5.4 1.4z"/>
	<path id="Layer" class="s1" d="m61.4 66.6l8.3-4.8 3 6.3-9 3.2z"/>
	<path id="Layer" class="s1" d="m65.2 71.8l5.6 0.8z"/>
	<path id="Layer" class="s1" d="m65.1 72l0.1-0.4 5.6 0.8v0.4z"/>
	<path id="Layer" class="s2" d="m67.7 23.2c-0.5-0.4-0.8-1.1-0.8-1.8 0-1.1 0.6-2 1.6-2.5 1-0.4 2.1-0.1 2.9 0.6 0.7 0.8 1 1.9 0.6 2.9-0.4 1-1.4 1.6-2.5 1.6-0.7 0-1.3-0.3-1.8-0.8z"/>
	<path id="Layer" fill-rule="evenodd" class="s3" d="m67.1 18.9c1-0.9 2.5-1.2 3.7-0.7 1.3 0.5 2.2 1.8 2.2 3.2-0.1 1.9-1.6 3.4-3.5 3.4-1.4 0-2.6-0.8-3.2-2.1-0.5-1.3-0.2-2.8 0.8-3.8zm1.1 3.8c0.5 0.5 1.3 0.7 2 0.4 0.7-0.3 1.2-1 1.2-1.7 0-1-0.9-1.8-1.9-1.9v0.1c-0.7-0.1-1.4 0.4-1.7 1.1-0.3 0.7-0.1 1.5 0.4 2z"/>
	<path id="Layer" class="s1" d="m69.5 20.9c0.2 0.1 0.4 0.3 0.4 0.5 0 0.2-0.2 0.4-0.4 0.4-0.1 0-0.3 0-0.4-0.2-0.1-0.1-0.1-0.3 0-0.5 0.1-0.1 0.3-0.2 0.4-0.2z"/>
	<path id="Layer" class="s2" d="m19.1 94.1c0-1.1 0.7-2 1.7-2.5 0.9-0.4 2.1-0.1 2.8 0.6 0.8 0.8 1 1.9 0.6 2.9-0.4 1-1.4 1.6-2.4 1.6-1.5 0-2.7-1.2-2.7-2.6z"/>
	<path id="Layer" fill-rule="evenodd" class="s3" d="m19.3 91.7c1-1 2.5-1.3 3.8-0.8 1.3 0.5 2.1 1.8 2.1 3.2 0 1.9-1.5 3.4-3.4 3.4-1.4 0-2.7-0.8-3.2-2.1-0.5-1.3-0.3-2.8 0.7-3.7zm1.2 3.7c0.5 0.5 1.3 0.7 2 0.4 0.6-0.3 1.1-1 1.1-1.7 0-1-0.8-1.8-1.8-1.8-0.8 0-1.4 0.4-1.7 1.1-0.3 0.7-0.2 1.5 0.4 2z"/>
	<path id="Layer" class="s1" d="m21.3 94.1c0-0.3 0.2-0.5 0.5-0.5 0.2 0 0.4 0.2 0.4 0.5 0 0.2-0.2 0.4-0.4 0.4-0.3 0-0.5-0.2-0.5-0.4z"/>
	<path id="Layer" class="s2" d="m80.5 29.7c1.2 0 2.3 0.9 2.6 2.1 0.2 1.2-0.4 2.4-1.6 2.9-1.1 0.5-2.4 0.1-3.2-0.9-0.7-1-0.6-2.4 0.3-3.3 0.5-0.5 1.2-0.8 1.9-0.8z"/>
	<path id="Layer" fill-rule="evenodd" class="s3" d="m78.1 29.9c0.6-0.6 1.5-1 2.4-1 1.8 0.1 3.2 1.6 3.2 3.4 0 1.9-1.4 3.4-3.2 3.5-1.9-0.1-3.5-1.6-3.5-3.5 0-0.9 0.4-1.8 1.1-2.4zm2.4 4.3c0.7 0 1.3-0.3 1.7-0.9 0.3-0.6 0.3-1.3 0-1.9-0.4-0.6-1-1-1.7-0.9-1 0-1.8 0.8-1.9 1.8 0 1 0.9 1.8 1.9 1.9z"/>
	<path id="Layer" class="s1" d="m80 32.6c0-0.2 0-0.4 0-0.5 0.1-0.2 0.3-0.2 0.5-0.2 0.2 0 0.4 0.2 0.4 0.4 0 0.2-0.2 0.4-0.4 0.5-0.2 0-0.4-0.1-0.5-0.2z"/>
	<path id="Layer" class="s2" d="m41.5 54.9c0-2.3 1.8-4.2 4.1-4.2 2.3 0 4.2 1.9 4.2 4.2 0 2.3-1.9 4.1-4.2 4.1-2.3 0-4.1-1.8-4.1-4.1z"/>
	<path id="Layer" fill-rule="evenodd" class="s3" d="m45.6 49.9c2.8 0 5 2.2 5 5 0 2.7-2.2 4.9-5 4.9-2.7 0-4.9-2.2-4.9-4.9 0-2.8 2.2-5 4.9-5zm0 8.3c1.9 0 3.4-1.5 3.4-3.3 0-1.9-1.5-3.4-3.4-3.4-1.8 0-3.3 1.5-3.3 3.4 0 1.8 1.5 3.3 3.3 3.3z"/>
	<path id="Layer" class="s1" d="m44.9 54.9c0-0.3 0.2-0.6 0.5-0.7 0.2-0.1 0.5 0 0.7 0.2 0.2 0.2 0.3 0.5 0.2 0.7-0.1 0.3-0.4 0.5-0.7 0.5-0.3 0-0.6-0.3-0.7-0.7z"/>
	<path id="Layer" class="s2" d="m25.9 9.1c2.3 0 4.2 1.9 4.2 4.2 0 2.3-1.9 4.1-4.2 4.1-2.3 0-4.1-1.8-4.1-4.1 0-2.3 1.8-4.2 4.1-4.2z"/>
	<path id="Layer" fill-rule="evenodd" class="s3" d="m25.9 8.3c2.8 0 5 2.2 5 5 0 2.7-2.2 4.9-5 4.9-2.7 0-4.9-2.2-4.9-4.9 0-2.8 2.2-5 4.9-5zm0 8.3c1.9 0 3.4-1.5 3.4-3.3 0-1.9-1.5-3.4-3.4-3.4-1.8 0-3.3 1.5-3.4 3.4 0.1 1.8 1.6 3.3 3.4 3.3zm0-6.7q0 0 0 0 0 0 0 0z"/>
	<path id="Layer" class="s1" d="m25.9 12.6c0.4 0 0.7 0.3 0.7 0.7 0 0.4-0.3 0.7-0.7 0.7-0.4 0-0.7-0.3-0.7-0.7 0-0.4 0.3-0.7 0.7-0.7z"/>
	<path id="Layer" class="s2" d="m102.4 60.4c1.7 0 3.2 1 3.8 2.5 0.7 1.6 0.3 3.4-0.9 4.6-1.2 1.2-3 1.5-4.5 0.9-1.6-0.7-2.6-2.2-2.6-3.9 0-1.1 0.5-2.1 1.2-2.9 0.8-0.8 1.9-1.2 3-1.2z"/>
	<path id="Layer" fill-rule="evenodd" class="s3" d="m97.9 62c1-1.6 2.7-2.5 4.5-2.4 1.8-0.1 3.5 0.8 4.4 2.4 1 1.6 1 3.5 0 5.1-0.9 1.5-2.6 2.5-4.4 2.4-1.8 0.1-3.5-0.9-4.5-2.4-0.9-1.6-0.9-3.5 0-5.1zm4.5 5.9c1.8 0 3.3-1.5 3.3-3.4 0-1.8-1.5-3.3-3.3-3.3-1.9 0-3.4 1.5-3.4 3.3 0 1.9 1.5 3.4 3.4 3.4z"/>
	<path id="Layer" class="s1" d="m102.4 63.8c0.3 0 0.6 0.3 0.7 0.6 0 0.3-0.1 0.6-0.4 0.8-0.4 0.1-0.7 0-0.9-0.3-0.2-0.3-0.1-0.6 0.1-0.9q0.2-0.2 0.5-0.2z"/>
	<path id="Layer" class="s2" d="m72 34.5c2.5 0 4.6 1.8 5.1 4.2 0.5 2.4-0.8 4.8-3.1 5.7-2.3 1-4.9 0.2-6.3-1.9-1.3-2-1-4.7 0.7-6.5 1-0.9 2.3-1.5 3.6-1.5z"/>
	<path id="Layer" fill-rule="evenodd" class="s3" d="m66.7 36.6c1.1-1.8 3.2-2.9 5.3-2.9 2.2 0 4.3 1.1 5.4 2.9 1.1 1.9 1.1 4.2 0 6.1-1.1 1.9-3.2 3-5.4 2.9-2.1 0.1-4.2-1-5.3-2.9-1.1-1.9-1.1-4.2 0-6.1zm1.4 5.3c0.8 1.4 2.3 2.2 3.9 2.1 2.4-0.1 4.2-2 4.2-4.3 0-2.3-1.8-4.3-4.2-4.4-1.6 0-3.1 0.8-3.9 2.2-0.8 1.3-0.8 3 0 4.4z"/>
	<path id="Layer" class="s1" d="m72 39.1c0.4 0 0.6 0.3 0.6 0.6 0 0.3-0.2 0.5-0.6 0.5-0.3 0-0.5-0.2-0.5-0.5 0-0.3 0.2-0.6 0.5-0.6z"/>
	<path id="Layer" class="s2" d="m103.4 79.6c2.4 0 4.5 1.8 5 4.2 0.5 2.4-0.8 4.8-3.1 5.7-2.2 1-4.9 0.2-6.2-1.9-1.4-2-1.1-4.7 0.6-6.5 1-0.9 2.3-1.5 3.7-1.5z"/>
	<path id="Layer" fill-rule="evenodd" class="s3" d="m97.4 84.8c0-3.3 2.7-6 6-6 3.3 0 5.9 2.7 5.9 6 0 3.3-2.6 5.9-5.9 5.9-1.6 0-3.1-0.6-4.2-1.7-1.1-1.1-1.8-2.6-1.8-4.2zm6 4.3c2.4 0 4.3-1.9 4.3-4.3 0-2.4-1.9-4.4-4.3-4.4-2.4 0-4.4 2-4.4 4.4 0 2.4 2 4.3 4.4 4.3z"/>
	<path id="Layer" class="s1" d="m103.4 84.2c0.3 0 0.5 0.3 0.5 0.6 0 0.3-0.2 0.5-0.5 0.5-0.3 0-0.6-0.2-0.6-0.5q0-0.2 0.2-0.4 0.1-0.2 0.4-0.2z"/>
	<path id="Layer" class="s2" d="m37.7 26.2c0-2.7 1.7-5.1 4.1-6.1 2.5-1 5.3-0.4 7.2 1.4 1.9 1.9 2.4 4.7 1.4 7.2-1 2.5-3.4 4.1-6.1 4.1-3.6 0-6.6-3-6.6-6.6z"/>
	<path id="Layer" fill-rule="evenodd" class="s3" d="m39.1 21c2.1-2.1 5.3-2.8 8-1.6 2.8 1.1 4.6 3.8 4.6 6.8 0 4.1-3.3 7.4-7.4 7.4-3 0-5.6-1.8-6.8-4.6-1.1-2.7-0.5-5.9 1.6-8zm1.1 9.3c1.7 1.6 4.2 2.1 6.3 1.2 2.2-0.9 3.6-3 3.6-5.3 0-3.2-2.6-5.8-5.8-5.8-2.3 0-4.4 1.4-5.3 3.6-0.9 2.1-0.4 4.6 1.2 6.3z"/>
	<path id="Layer" class="s1" d="m43.9 26.7q-0.2-0.2-0.2-0.5c0-0.4 0.3-0.7 0.6-0.7 0.4 0 0.7 0.3 0.7 0.7 0 0.4-0.3 0.6-0.7 0.6q-0.2 0-0.4-0.1z"/>
	<path id="Layer" class="s2" d="m3.4 69.8c0-4.7 3.8-8.6 8.5-8.6 4.7 0 8.5 3.9 8.5 8.6 0 4.7-3.8 8.5-8.5 8.5-4.7 0-8.5-3.8-8.5-8.5z"/>
	<path id="Layer" fill-rule="evenodd" class="s3" d="m11.9 60.4c5.2 0 9.4 4.2 9.4 9.4-0.1 5.1-4.2 9.3-9.4 9.3-5.2 0-9.4-4.2-9.4-9.3 0-5.2 4.2-9.4 9.4-9.4zm-5.5 14.9c2.2 2.2 5.6 2.9 8.5 1.7 2.9-1.3 4.8-4.1 4.8-7.2-0.1-4.3-3.5-7.8-7.8-7.8-3.1 0-6 1.9-7.2 4.8-1.2 2.9-0.5 6.3 1.7 8.5z"/>
	<path id="Layer" class="s1" d="m11 69.8c0-0.5 0.4-0.9 0.9-0.9 0.5 0 0.9 0.4 0.9 0.9 0 0.5-0.4 0.9-0.9 0.9-0.5 0-0.9-0.4-0.9-0.9z"/>
</svg>