<svg width="249" height="21" viewBox="0 0 249 21" fill="none" xmlns="http://www.w3.org/2000/svg">
<path fill-rule="evenodd" clip-rule="evenodd" d="M18.5169 15.0703C19.04 13.6115 19.2935 12.0673 19.2646 10.5151H19.2721C19.3054 8.97067 19.0544 7.4335 18.5318 5.98267C18.0753 4.74972 17.3697 3.62737 16.4606 2.68773C15.5948 1.80245 14.5483 1.12085 13.3948 0.691032C12.1986 0.240817 10.9319 0.0144604 9.65615 0.0229345C8.40243 0.0161553 7.1581 0.242591 5.98475 0.691032C4.82935 1.11242 3.77631 1.78033 2.89658 2.64977C1.97586 3.5874 1.25772 4.70957 0.787958 5.94471C0.236061 7.39656 -0.0306606 8.94405 0.00283161 10.4999C-0.0300421 12.0524 0.223571 13.5974 0.750571 15.0551C1.19881 16.2865 1.89973 17.407 2.80685 18.3425C3.67966 19.2206 4.72755 19.8989 5.88006 20.3316C7.0772 20.7784 8.3433 21.0047 9.61876 20.9997C10.9188 21.0079 12.21 20.7817 13.4322 20.3316C14.5829 19.9041 15.627 19.225 16.4905 18.3425C17.3819 17.4061 18.072 16.2918 18.5169 15.0703ZM4.8407 13.1799C4.59726 12.3136 4.47888 11.4159 4.48927 10.5151C4.48694 9.63171 4.60777 8.75244 4.84818 7.90344C5.05428 7.14479 5.40205 6.43343 5.87258 5.80805C6.30219 5.24508 6.85183 4.78825 7.48022 4.47185C8.15914 4.1431 8.90411 3.97935 9.65615 3.99356C10.404 3.98062 11.1452 4.13891 11.8246 4.45667C12.4585 4.76069 13.0122 5.21349 13.4397 5.77768C13.9034 6.3912 14.2461 7.08978 14.4492 7.83512C14.6889 8.70725 14.8048 9.6097 14.7931 10.5151C14.8058 11.4156 14.69 12.3132 14.4492 13.1799C14.2438 13.922 13.9013 14.6177 13.4397 15.2297C13.014 15.7939 12.4598 16.2446 11.8246 16.5432C10.4404 17.1608 8.86445 17.1608 7.48022 16.5432C6.83893 16.2444 6.27743 15.794 5.84268 15.2297C5.38576 14.6158 5.04593 13.9206 4.8407 13.1799Z" fill="#0090F0"/>
<path d="M36.2831 20.9845C35.0419 18.5854 33.7034 16.2142 32.2678 13.8708C30.8583 11.5783 29.323 9.36807 27.6692 7.25055V20.9845H23.4071V0.0229492H26.9214C27.5346 0.691046 28.2076 1.50339 28.9478 2.47517C29.6881 3.44695 30.4433 4.47187 31.191 5.57271C31.9388 6.67355 32.6865 7.81235 33.4791 8.98912C34.2717 10.1659 34.9746 11.2667 35.6102 12.3903V0.0229492H39.9022V20.9845H36.2831Z" fill="#0090F0"/>
<path d="M45.413 20.9845V0.0229492H58.5358V3.98598H49.7873V8.10085H57.5787V11.9652H49.7873V17.0139H59.1789V20.9769L45.413 20.9845Z" fill="#0090F0"/>
<path d="M73.9543 0.0229492H78.4407V20.9845H73.9543V12.0867H66.417V20.9845H61.9306V0.0229492H66.417V8.04012H73.9543V0.0229492Z" fill="white"/>
<path fill-rule="evenodd" clip-rule="evenodd" d="M101.09 15.0704C101.613 13.6117 101.866 12.0674 101.837 10.5152C101.861 8.95948 101.592 7.4135 101.045 5.96001C100.591 4.72752 99.8879 3.60515 98.9811 2.66507C98.1126 1.77963 97.0636 1.09809 95.9078 0.668373C94.7118 0.217344 93.445 -0.00903968 92.1692 0.000276241C90.9154 -0.00719043 89.6709 0.219267 88.4978 0.668373C87.3438 1.1018 86.2956 1.78285 85.4245 2.66507C84.5087 3.60667 83.7912 4.72776 83.3159 5.96001C82.777 7.4145 82.523 8.96187 82.5682 10.5152C82.5355 12.0677 82.7891 13.6126 83.3159 15.0704C83.7737 16.2961 84.4792 17.4107 85.3872 18.3426C86.26 19.2208 87.3079 19.899 88.4604 20.3317C89.6572 20.7798 90.9235 21.0061 92.1991 20.9998C93.4991 21.008 94.7903 20.7818 96.0125 20.3317C97.1632 19.9042 98.2073 19.2252 99.0708 18.3426C99.9597 17.4056 100.647 16.2913 101.09 15.0704ZM87.4135 13.218C87.1691 12.339 87.0532 11.4284 87.0696 10.5152C87.0625 9.63256 87.1783 8.75331 87.4135 7.90356C87.6197 7.15943 87.9621 6.46143 88.423 5.84613C88.8509 5.28147 89.4009 4.8243 90.0306 4.50993C90.709 4.17958 91.4543 4.01574 92.2065 4.03164C92.9521 4.01801 93.691 4.17635 94.3675 4.49475C95.0028 4.79996 95.5586 5.25246 95.9901 5.81576C96.4485 6.43155 96.7884 7.12955 96.9921 7.87319C97.2345 8.74493 97.3528 9.6474 97.3435 10.5532C97.3539 11.454 97.2355 12.3516 96.9921 13.218C96.7868 13.9587 96.447 14.6539 95.9901 15.2678C95.56 15.8306 95.0037 16.2809 94.3675 16.5812C92.9858 17.1986 91.4123 17.1986 90.0306 16.5812C89.3989 16.2804 88.8476 15.8299 88.423 15.2678C87.9637 14.6543 87.6214 13.9591 87.4135 13.218Z" fill="white"/>
<path d="M110.915 17.1277C111.418 17.1393 111.921 17.0857 112.41 16.9683C112.748 16.8883 113.067 16.7384 113.345 16.528C113.569 16.3673 113.741 16.1427 113.839 15.8827C113.931 15.6117 113.977 15.3266 113.973 15.0399C113.973 14.3784 113.644 13.7616 113.098 13.4001C112.169 12.7952 111.163 12.3227 110.107 11.9955C109.494 11.7602 108.874 11.4945 108.261 11.2363C107.653 10.9436 107.092 10.5625 106.593 10.1051C105.483 9.08114 104.875 7.61094 104.933 6.08896C104.921 5.22775 105.089 4.37374 105.427 3.58359C105.739 2.84987 106.215 2.20004 106.817 1.68559C107.456 1.13922 108.196 0.728709 108.993 0.47846C109.928 0.186845 110.902 0.045944 111.88 0.0608991C112.994 0.0394659 114.105 0.185289 115.177 0.493644C115.974 0.727681 116.744 1.04841 117.473 1.45024L116.239 5.01848C115.676 4.71368 115.088 4.45964 114.482 4.25928C113.735 4.00335 112.952 3.87507 112.164 3.87968C111.407 3.81756 110.647 3.97277 109.973 4.32761C109.52 4.62839 109.263 5.15385 109.3 5.70177C109.288 6.02869 109.374 6.35151 109.547 6.62799C109.73 6.90132 109.967 7.13381 110.242 7.31127C110.568 7.52927 110.913 7.71487 111.274 7.86549C111.67 8.02492 112.096 8.19954 112.575 8.37415C113.572 8.75881 114.424 9.13842 115.132 9.51296C115.802 9.85073 116.413 10.2969 116.942 10.834C117.427 11.3343 117.795 11.9388 118.019 12.6029C118.276 13.3985 118.398 14.233 118.377 15.0703C118.468 16.7381 117.781 18.3521 116.523 19.4281C115.289 20.4606 113.427 20.9465 110.937 20.9465C110.187 20.9511 109.437 20.8978 108.694 20.7871C108.093 20.6941 107.499 20.5623 106.915 20.3923C106.457 20.2626 106.009 20.0977 105.576 19.8988C105.253 19.7533 104.938 19.5886 104.634 19.4053L105.838 15.8143C107.402 16.6969 109.171 17.1374 110.96 17.0898L110.915 17.1277Z" fill="white"/>
<path d="M136.241 0.0229492V4.04672H130.259V20.9845H125.773V4.04672H119.791V0.0229492H136.241Z" fill="white"/>
<path fill-rule="evenodd" clip-rule="evenodd" d="M151.757 1.65523C150.186 0.561982 147.906 0.0229492 144.952 0.0229492C144.13 0.0229492 143.172 0.0609093 142.073 0.144421C141.034 0.216307 140 0.35578 138.978 0.561982V20.9693H143.464V14.0302H144.862C147.838 14.0302 150.119 13.4684 151.727 12.3676C153.334 11.2667 154.134 9.42186 154.134 6.96964C154.134 4.51742 153.327 2.74848 151.757 1.65523ZM144.279 4.00116H145.236C145.829 3.9909 146.421 4.02643 147.008 4.10745C147.497 4.18392 147.966 4.35396 148.392 4.60853C148.752 4.83057 149.048 5.14471 149.252 5.51957C149.464 5.96905 149.566 6.46382 149.551 6.96205C149.659 7.9488 149.192 8.90931 148.354 9.42186C147.257 9.91119 146.058 10.1222 144.862 10.0368H143.457V4.05431L144.279 4.00116Z" fill="#0090F0"/>
<path d="M172.02 16.9304V20.9845H158.262V0.0229492H162.898V16.9304H172.02Z" fill="#0090F0"/>
<path fill-rule="evenodd" clip-rule="evenodd" d="M187.005 18.7071C187.282 19.4663 187.528 20.2255 187.753 20.9847L192.688 20.9999C191.918 18.7375 191.192 16.6497 190.504 14.7365C189.816 12.8233 189.136 11.0164 188.478 9.32336C187.82 7.63034 187.155 6.01324 186.511 4.49484C185.868 2.97644 185.203 1.4884 184.537 0.0383301H180.186C179.498 1.45804 178.84 2.96885 178.197 4.49484C177.554 6.02084 176.91 7.63034 176.245 9.32336C175.597 11.029 174.924 12.8334 174.226 14.7365C173.528 16.6395 172.793 18.7223 172.02 20.9847H176.791L176.791 20.9844C177.038 20.2253 177.284 19.4662 177.539 18.7071L178.286 16.4295H186.257C186.489 17.1887 186.728 17.9479 187.005 18.7071ZM181.793 6.01324C181.988 5.4894 182.137 5.07183 182.242 4.76815C182.264 4.82517 182.288 4.88593 182.314 4.95043C182.424 5.22952 182.562 5.57872 182.72 5.99806L183.416 7.82014C183.678 8.51102 183.954 9.27022 184.246 10.0977C184.272 10.1715 184.298 10.2455 184.324 10.3198C184.592 11.0799 184.871 11.8719 185.151 12.7018H179.326C179.647 11.7984 179.961 10.9405 180.275 10.1053C180.589 9.27022 180.866 8.51861 181.12 7.82774L181.793 6.01324Z" fill="#0090F0"/>
<path d="M208.301 20.9845C207.069 18.5854 205.731 16.2142 204.285 13.8708C202.873 11.5799 201.338 9.36982 199.687 7.25055V20.9845H195.417V0.0229492H198.939C199.545 0.691046 200.225 1.50339 200.958 2.47517C201.691 3.44695 202.453 4.47187 203.201 5.57271C203.949 6.67355 204.734 7.81235 205.489 8.98912C206.244 10.1659 206.985 11.2667 207.62 12.3903V0.0229492H211.92V20.9845H208.301Z" fill="#0090F0"/>
<path d="M217.438 20.9845V0.0229492H230.553V3.98598H221.812V8.10085H229.559V11.9652H221.812V17.0139H231.196V20.9769L217.438 20.9845Z" fill="#0090F0"/>
<mask id="mask0_5_802" style="mask-type:alpha" maskUnits="userSpaceOnUse" x="232" y="0" width="17" height="21">
<path fill-rule="evenodd" clip-rule="evenodd" d="M232.61 0.0534668H249V20.8632H232.61V0.0534668Z" fill="white"/>
</mask>
<g mask="url(#mask0_5_802)">
<path d="M249 0.0534668V4.04687H243.018V20.8632H238.532V4.04687H232.55V0.0534668H249Z" fill="#0090F0"/>
</g>
</svg>
