<svg width="160" height="143" viewBox="0 0 160 143" fill="none" xmlns="http://www.w3.org/2000/svg">
<mask id="mask0_5_826" style="mask-type:alpha" maskUnits="userSpaceOnUse" x="41" y="28" width="85" height="81">
<path fill-rule="evenodd" clip-rule="evenodd" d="M41.0821 28.8054H125.938V108.047H41.0821V28.8054Z" fill="white"/>
</mask>
<g mask="url(#mask0_5_826)">
<path d="M95.351 83.7464L93.1348 80.4566C105.184 73.7251 114.577 67.1216 120.161 61.5587C124.85 56.8842 126.866 52.9542 125.53 50.2968C124.418 48.1036 120.945 46.8149 115.825 46.6628C116.321 48.1771 116.646 49.7424 116.793 51.3293C116.793 51.3293 116.073 49.8885 115.713 49.1922L114.393 46.6308C107.404 35.5747 95.2574 28.8528 82.1818 28.8054C60.8919 28.8054 43.6263 46.5428 43.6263 68.4263C43.6263 72.1323 44.8905 78.3996 44.9305 78.6557C49.0588 72.7726 56.1315 65.8489 66.3484 58.7092L69.3407 62.087C58.4597 68.8265 50.491 76.2704 45.8425 82.6178C41.7542 88.2207 40.242 92.9272 41.5462 95.5446C42.8503 98.162 47.3707 98.6743 54.0273 97.2015C53.0343 95.9345 52.1963 94.5533 51.5311 93.0873C51.5311 93.0873 52.9792 94.6161 53.5392 95.1444L55.3634 96.8893C62.4661 104.025 72.1156 108.04 82.1818 108.047C103.48 108.047 120.737 90.3098 120.737 68.4263C120.737 67.1857 120.681 65.953 120.577 64.7444C115.993 70.1152 107.672 76.5906 95.351 83.7464Z" fill="#0090F0"/>
</g>
<path d="M44.6184 85.7794C44.7704 85.5233 44.9304 85.2752 45.0985 84.979C44.9304 85.2752 44.7864 85.5233 44.6184 85.7794Z" fill="white"/>
<path d="M42.7463 85.7875L43.1943 84.9871L42.7463 85.7875Z" fill="white"/>
<path d="M42.7623 87.6766C42.8903 87.4125 43.0343 87.1564 43.1783 86.8762C43.0343 87.1564 42.8903 87.4125 42.7623 87.6766Z" fill="white"/>
<path d="M44.5864 83.8986L45.1305 83.0981L44.5864 83.8986Z" fill="white"/>
<path d="M44.6024 83.8905L45.1065 83.1301L44.6024 83.8905Z" fill="white"/>
<mask id="mask1_5_826" style="mask-type:alpha" maskUnits="userSpaceOnUse" x="41" y="91" width="2" height="2">
<path fill-rule="evenodd" clip-rule="evenodd" d="M41.8422 91.1265H42.5462V92.5432H41.8422V91.1265Z" fill="white"/>
</mask>
<g mask="url(#mask1_5_826)">
<path d="M42.0022 92.5432C42.0865 92.0648 42.1987 91.5918 42.3382 91.1265C42.1987 91.5918 42.0865 92.0648 42.0022 92.5432Z" fill="white"/>
</g>
<path d="M40.7861 91.0623C40.9239 90.4155 41.1222 89.7831 41.3781 89.1733C41.1222 89.7831 40.9239 90.4155 40.7861 91.0623Z" fill="white"/>
<path d="M42.8103 89.5334C42.9063 89.2933 43.0183 89.0532 43.1303 88.8051C43.0183 89.0532 42.9063 89.2933 42.8103 89.5334Z" fill="white"/>
<path d="M42.7863 87.6604L43.1543 86.908L42.7863 87.6604Z" fill="white"/>
<path d="M42.8263 89.5334C42.9143 89.2933 43.0103 89.0532 43.1143 88.8051C43.0103 89.0532 42.9143 89.2933 42.8263 89.5334Z" fill="white"/>
<path d="M75.0452 59.2856L67.5405 64.6324L63.7242 59.2216L72.1569 55.2195L75.0452 59.2856Z" fill="white"/>
<path d="M71.1888 55.5237L65.7563 56.8204L71.1888 55.5237Z" fill="white"/>
<path d="M65.7056 56.6424L71.1357 55.304L71.2391 55.7237L65.8089 57.062L65.7056 56.6424Z" fill="white"/>
<path d="M86.3902 82.5619L94.6709 77.8474L97.7112 84.0827L88.6864 87.2844L86.3902 82.5619Z" fill="white"/>
<path d="M90.1665 87.7725L95.7671 88.5729L90.1665 87.7725Z" fill="white"/>
<path d="M90.1405 87.9947L90.2044 87.5672L95.8303 88.4094L95.7663 88.8369L90.1405 87.9947Z" fill="white"/>
<path opacity="0.3" d="M94.5269 40.0115C95.5923 40.0115 96.5526 39.369 96.9596 38.384C97.3665 37.399 97.1398 36.2657 96.3854 35.5132C95.6309 34.7607 94.4974 34.5373 93.5141 34.9475C92.5307 35.3576 91.8915 36.3203 91.8947 37.3861C91.8947 38.0838 92.1723 38.7528 92.6661 39.2454C93.16 39.7379 93.8296 40.0136 94.5269 40.0115Z" fill="#0EAAFF"/>
<path fill-rule="evenodd" clip-rule="evenodd" d="M91.3494 38.6958C91.8828 39.9796 93.1373 40.815 94.527 40.8118C96.4163 40.8074 97.9469 39.2762 97.9513 37.386C97.9545 35.9957 97.1194 34.7406 95.8361 34.2071C94.5528 33.6736 93.0746 33.9668 92.0919 34.9499C91.1093 35.933 90.8161 37.4119 91.3494 38.6958ZM92.8286 36.679C93.1147 35.9943 93.7852 35.5498 94.527 35.553V35.545C95.537 35.5538 96.3512 36.3755 96.3511 37.386C96.3511 38.1281 95.9038 38.797 95.2182 39.0802C94.5326 39.3634 93.7439 39.2051 93.2206 38.6792C92.6972 38.1534 92.5424 37.3637 92.8286 36.679Z" fill="#0EAAFF"/>
<path d="M94.5269 36.9379C94.7451 36.9675 94.9078 37.1538 94.9078 37.3741C94.9078 37.5943 94.7451 37.7807 94.5269 37.8103C94.3571 37.8334 94.1893 37.7556 94.0969 37.6111C94.0046 37.4666 94.0046 37.2816 94.0969 37.137C94.1893 36.9925 94.3571 36.9148 94.5269 36.9379Z" fill="white"/>
<path opacity="0.3" d="M46.7626 112.714C47.8287 112.717 48.7915 112.076 49.2009 111.092C49.6104 110.107 49.3857 108.972 48.6319 108.218C47.878 107.464 46.7439 107.239 45.7596 107.649C44.7753 108.058 44.1351 109.022 44.1384 110.088C44.1384 111.538 45.3133 112.714 46.7626 112.714Z" fill="#0EAAFF"/>
<path fill-rule="evenodd" clip-rule="evenodd" d="M43.5851 111.398C44.1184 112.682 45.3729 113.517 46.7626 113.514C48.6538 113.514 50.1869 111.98 50.1869 110.088C50.1902 108.698 49.3551 107.443 48.0718 106.909C46.7885 106.376 45.3103 106.669 44.3276 107.652C43.345 108.635 43.0518 110.114 43.5851 111.398ZM45.0642 109.381C45.3503 108.697 46.0209 108.252 46.7626 108.255C47.7714 108.26 48.5868 109.079 48.5868 110.088C48.5868 110.83 48.1395 111.499 47.4539 111.783C46.7683 112.066 45.9796 111.908 45.4563 111.382C44.9329 110.856 44.7781 110.066 45.0642 109.381Z" fill="#0EAAFF"/>
<path d="M46.7626 110.529C47.0057 110.529 47.2027 110.332 47.2027 110.088C47.2027 109.845 47.0057 109.648 46.7626 109.648C46.5196 109.648 46.3226 109.845 46.3226 110.088C46.3226 110.332 46.5196 110.529 46.7626 110.529Z" fill="white"/>
<path opacity="0.3" d="M105.48 45.6944C106.73 45.6837 107.814 46.5564 108.071 47.7802C108.328 49.0039 107.686 50.2391 106.537 50.7323C105.389 51.2255 104.052 50.8398 103.342 49.8104C102.633 48.7811 102.747 47.3938 103.616 46.4949C104.107 45.9926 104.777 45.7049 105.48 45.6944Z" fill="#0EAAFF"/>
<path fill-rule="evenodd" clip-rule="evenodd" d="M102.048 48.3199C102.048 50.2132 103.579 51.7493 105.472 51.7537H105.48C107.309 51.6652 108.747 50.1559 108.747 48.3239C108.747 46.4919 107.309 44.9825 105.48 44.8941C104.57 44.8919 103.697 45.2519 103.053 45.8946C102.409 46.5373 102.048 47.4099 102.048 48.3199ZM103.648 48.3199C103.652 47.3138 104.466 46.4993 105.472 46.4949C106.154 46.4497 106.804 46.7881 107.159 47.3726C107.514 47.9571 107.514 48.6906 107.159 49.2751C106.804 49.8596 106.154 50.198 105.472 50.1528C104.463 50.1484 103.648 49.3291 103.648 48.3199Z" fill="#0EAAFF"/>
<path d="M105.48 48.76C105.698 48.7304 105.861 48.544 105.861 48.3238C105.861 48.1035 105.698 47.9172 105.48 47.8876C105.31 47.8645 105.142 47.9422 105.05 48.0868C104.958 48.2313 104.958 48.4163 105.05 48.5608C105.142 48.7054 105.31 48.7831 105.48 48.76Z" fill="white"/>
<path opacity="0.3" d="M70.6368 75.0458C72.9345 75.0458 74.7972 73.1823 74.7972 70.8836C74.7972 68.5849 72.9345 66.7214 70.6368 66.7214C68.3391 66.7214 66.4764 68.5849 66.4764 70.8836C66.4764 73.1823 68.3391 75.0458 70.6368 75.0458Z" fill="#0EAAFF"/>
<path fill-rule="evenodd" clip-rule="evenodd" d="M65.6763 70.8838C65.6763 73.6245 67.8972 75.8464 70.6368 75.8464C73.3745 75.842 75.5928 73.6227 75.5972 70.8838C75.5972 68.143 73.3764 65.9211 70.6368 65.9211C67.8972 65.9211 65.6763 68.143 65.6763 70.8838ZM67.2765 70.8838C67.2765 69.0271 68.7809 67.522 70.6368 67.522C72.4908 67.5264 73.9927 69.0289 73.9971 70.8838C73.9971 72.7404 72.4926 74.2455 70.6368 74.2455C68.7809 74.2455 67.2765 72.7404 67.2765 70.8838Z" fill="#0EAAFF"/>
<path d="M70.6368 71.5722C70.9197 71.5754 71.1765 71.4069 71.2863 71.146C71.3961 70.8851 71.337 70.5836 71.1369 70.3834C70.9368 70.1832 70.6355 70.1242 70.3747 70.234C70.1139 70.3438 69.9455 70.6007 69.9487 70.8838C69.953 71.2622 70.2586 71.5678 70.6368 71.5722Z" fill="white"/>
<path opacity="0.3" d="M50.923 25.1155C53.2197 25.1199 55.0783 26.9853 55.0754 29.283C55.0724 31.5807 53.209 33.4413 50.9123 33.4399C48.6157 33.4384 46.7546 31.5753 46.7546 29.2777C46.759 26.9777 48.624 25.1155 50.923 25.1155V25.1155Z" fill="#0EAAFF"/>
<path fill-rule="evenodd" clip-rule="evenodd" d="M45.9545 29.2778C45.9545 32.0186 48.1754 34.2404 50.915 34.2404C53.6546 34.2404 55.8754 32.0186 55.8754 29.2778C55.8754 26.537 53.6546 24.3152 50.915 24.3152C48.1754 24.3152 45.9545 26.537 45.9545 29.2778ZM47.5467 29.2778C47.5555 27.4223 49.0586 25.9215 50.913 25.916C52.7661 25.9193 54.2673 27.4232 54.2673 29.2778C54.2673 31.1345 52.7628 32.6396 50.907 32.6396C49.053 32.6352 47.5511 31.1326 47.5467 29.2778ZM50.913 25.916C50.9137 25.916 50.9143 25.916 50.915 25.916H50.907C50.909 25.916 50.911 25.916 50.913 25.916Z" fill="#0EAAFF"/>
<path d="M50.923 28.5894C51.303 28.5894 51.6111 28.8975 51.6111 29.2777C51.6111 29.6579 51.303 29.9661 50.923 29.9661C50.543 29.9661 50.2349 29.6579 50.2349 29.2777C50.2349 28.8975 50.543 28.5894 50.923 28.5894Z" fill="white"/>
<path opacity="0.3" d="M127.386 76.3665C129.069 76.3665 130.587 77.3814 131.23 78.9377C131.874 80.494 131.516 82.2849 130.325 83.4746C129.133 84.6644 127.343 85.0185 125.788 84.3717C124.234 83.725 123.222 82.2048 123.226 80.5207C123.226 79.4175 123.664 78.3597 124.445 77.5804C125.225 76.8011 126.283 76.3643 127.386 76.3665Z" fill="#0EAAFF"/>
<path fill-rule="evenodd" clip-rule="evenodd" d="M122.924 83.0633C123.855 84.6276 125.568 85.5564 127.386 85.4833C129.204 85.5564 130.916 84.6276 131.847 83.0633C132.778 81.499 132.778 79.5503 131.847 77.986C130.916 76.4217 129.204 75.4929 127.386 75.566C125.568 75.4929 123.855 76.4217 122.924 77.986C121.994 79.5503 121.994 81.499 122.924 83.0633ZM124.026 80.5286C124.026 78.672 125.53 77.1669 127.386 77.1669C129.242 77.1669 130.746 78.672 130.746 80.5286C130.746 82.3853 129.242 83.8904 127.386 83.8904C125.53 83.8904 124.026 82.3853 124.026 80.5286Z" fill="#0EAAFF"/>
<path d="M127.386 79.8323C127.719 79.8322 128.005 80.0675 128.069 80.3939C128.133 80.7204 127.958 81.0468 127.65 81.173C127.342 81.2992 126.988 81.1899 126.805 80.9122C126.622 80.6344 126.661 80.2658 126.898 80.0324C127.028 79.9035 127.203 79.8315 127.386 79.8323Z" fill="white"/>
<path opacity="0.3" d="M97.0472 50.521C99.5061 50.5258 101.619 52.2681 102.093 54.682C102.567 57.0958 101.27 59.5084 98.9958 60.4435C96.7215 61.3786 94.1036 60.5757 92.744 58.526C91.3844 56.4763 91.662 53.7511 93.4069 52.0178C94.3735 51.0551 95.6832 50.5166 97.0472 50.521Z" fill="#0EAAFF"/>
<path fill-rule="evenodd" clip-rule="evenodd" d="M91.7097 58.7159C92.8206 60.5876 94.8648 61.7026 97.0392 61.6227C99.2135 61.7026 101.258 60.5876 102.369 58.7159C103.479 56.8442 103.479 54.5149 102.369 52.6432C101.258 50.7716 99.2135 49.6566 97.0392 49.7364C94.8648 49.6566 92.8206 50.7716 91.7097 52.6432C90.5989 54.5149 90.5989 56.8442 91.7097 58.7159ZM93.1219 53.4528C93.9399 52.0811 95.444 51.2688 97.0392 51.3373C99.3639 51.4372 101.197 53.3517 101.197 55.6796C101.197 58.0074 99.3639 59.922 97.0392 60.0219C95.444 60.0904 93.9399 59.2781 93.1219 57.9063C92.3039 56.5346 92.3039 54.8245 93.1219 53.4528Z" fill="#0EAAFF"/>
<path d="M97.0472 55.1074C97.3521 55.1074 97.5992 55.3547 97.5992 55.6597C97.5992 55.9647 97.3521 56.212 97.0472 56.212C96.7423 56.212 96.4951 55.9647 96.4951 55.6597C96.4951 55.3547 96.7423 55.1074 97.0472 55.1074Z" fill="white"/>
<path opacity="0.3" d="M128.37 95.6328C130.82 95.6369 132.926 97.3711 133.4 99.7754C133.875 102.18 132.587 104.585 130.323 105.521C128.059 106.457 125.449 105.663 124.089 103.624C122.729 101.586 122.997 98.8704 124.73 97.1376C125.697 96.1742 127.005 95.6332 128.37 95.6328V95.6328Z" fill="#0EAAFF"/>
<path fill-rule="evenodd" clip-rule="evenodd" d="M124.167 104.985C125.281 106.1 126.793 106.727 128.37 106.727C131.653 106.727 134.315 104.064 134.315 100.779C134.315 97.4949 131.653 94.8323 128.37 94.8323C125.089 94.8367 122.43 97.4967 122.425 100.779C122.425 102.357 123.052 103.869 124.167 104.985ZM124.026 100.779C124.026 98.379 125.971 96.4331 128.37 96.4331C130.769 96.4331 132.714 98.379 132.714 100.779C132.714 103.18 130.769 105.126 128.37 105.126C125.971 105.126 124.026 103.18 124.026 100.779Z" fill="#0EAAFF"/>
<path d="M128.37 100.235C128.67 100.235 128.914 100.479 128.914 100.779C128.914 101.08 128.67 101.324 128.37 101.324C128.07 101.324 127.826 101.08 127.826 100.779C127.824 100.634 127.88 100.495 127.983 100.392C128.085 100.29 128.225 100.233 128.37 100.235Z" fill="white"/>
<path opacity="0.3" d="M69.3247 48.768C71.9847 48.768 74.3827 47.165 75.4007 44.7064C76.4186 42.2478 75.8559 39.4179 73.975 37.5362C72.0941 35.6544 69.2654 35.0915 66.8079 36.1099C64.3504 37.1283 62.7481 39.5274 62.7481 42.1885C62.7481 45.8223 65.6925 48.768 69.3247 48.768Z" fill="#0EAAFF"/>
<path fill-rule="evenodd" clip-rule="evenodd" d="M62.5095 45.0126C63.6513 47.7703 66.3411 49.5683 69.3247 49.5683C73.3987 49.5683 76.7013 46.2643 76.7013 42.1885C76.7013 39.2036 74.9041 36.5126 72.1476 35.3703C69.3911 34.2281 66.2183 34.8595 64.1086 36.9701C61.9989 39.0807 61.3677 42.2549 62.5095 45.0126ZM63.9871 39.9868C64.8807 37.8263 66.9876 36.4174 69.3247 36.4174C72.5118 36.4174 75.0968 38.9999 75.1012 42.1885C75.1044 44.5266 73.6991 46.6363 71.5408 47.5333C69.3825 48.4303 66.8966 47.9379 65.2429 46.2857C63.5892 44.6335 63.0935 42.1472 63.9871 39.9868Z" fill="#0EAAFF"/>
<path d="M69.3247 42.845C69.6839 42.845 69.9763 42.556 69.9807 42.1966C69.9807 41.8341 69.687 41.5403 69.3247 41.5403C68.9655 41.5447 68.6766 41.8372 68.6766 42.1966C68.6766 42.3686 68.7449 42.5335 68.8664 42.6551C68.988 42.7767 69.1528 42.845 69.3247 42.845Z" fill="white"/>
<path opacity="0.3" d="M36.8977 94.328C41.6169 94.328 45.4425 90.5007 45.4425 85.7795C45.4425 81.0583 41.6169 77.231 36.8977 77.231C32.1786 77.231 28.353 81.0583 28.353 85.7795C28.3574 90.4988 32.1804 94.3236 36.8977 94.328Z" fill="#0EAAFF"/>
<path fill-rule="evenodd" clip-rule="evenodd" d="M27.5449 85.7795C27.5449 90.9472 31.7323 95.1365 36.8977 95.1365C42.0613 95.1321 46.2462 90.9454 46.2506 85.7795C46.2506 80.6118 42.0632 76.4226 36.8977 76.4226C31.7323 76.4226 27.5449 80.6118 27.5449 85.7795ZM29.7344 82.8213C30.9339 79.922 33.7613 78.0315 36.8977 78.0315C41.1763 78.0315 44.646 81.4991 44.6504 85.7795C44.6537 88.9173 42.7668 91.7479 39.8701 92.9509C36.9734 94.154 33.6375 93.4924 31.4186 91.2748C29.1997 89.0572 28.5349 85.7205 29.7344 82.8213Z" fill="#0EAAFF"/>
<path d="M36.8977 86.6519C37.3794 86.6519 37.7698 86.2613 37.7698 85.7794C37.7698 85.2976 37.3794 84.907 36.8977 84.907C36.4161 84.907 36.0257 85.2976 36.0257 85.7794C36.0257 86.2613 36.4161 86.6519 36.8977 86.6519Z" fill="white"/>
<g opacity="0.5">
<path fill-rule="evenodd" clip-rule="evenodd" d="M105.84 3.27203C114.009 -0.594003 120.921 -0.874151 126.77 1.59115C127.44 1.87037 128.094 2.18567 128.73 2.53565C133.322 5.06498 136.635 9.59537 138.539 15.7746C140.812 16.3336 143.04 17.0641 145.204 17.9598C151.852 20.8013 156.445 24.9315 158.613 30.3103C162.517 39.9234 158.117 52.3139 146.212 65.2007C140.774 70.986 134.745 76.1855 128.224 80.7138L128.208 80.6959L128.218 80.6889H128.202L128.208 80.6959L128.187 80.7111L128.174 80.6962L128.218 80.6648L127.817 80.2408C134.318 75.7218 140.33 70.5363 145.756 64.7685C157.477 52.0818 161.837 39.9234 158.029 30.5504C155.925 25.3237 151.452 21.2815 144.964 18.5441C142.949 17.7017 140.874 17.0121 138.756 16.4812L138.755 16.479H138.795L138.743 16.466L138.131 16.3109L138.134 16.322L138.091 16.3109C138.027 16.0761 137.955 15.844 137.875 15.6145C136.003 9.74745 132.818 5.44918 128.45 3.04792C127.823 2.70375 127.18 2.3912 126.522 2.11142C120.961 -0.233814 114.393 -0.00969514 106.64 3.55218L105.84 3.27203ZM137.875 15.6145C137.955 15.8707 138.022 16.1135 138.075 16.3429C133.934 15.3753 129.713 14.7885 125.466 14.59L124.666 13.9257H125.426C129.617 14.119 133.783 14.6842 137.875 15.6145ZM127.191 79.5181L127.186 79.5122C134.467 64.0881 138.859 48.6079 139.731 35.0008C140.227 27.7542 139.66 21.4587 138.134 16.322L138.747 16.479L138.756 16.4812C140.227 21.6035 140.795 27.878 140.315 35.0408C139.435 48.776 134.987 64.4323 127.61 79.9925L127.297 79.6378L127.194 79.5122L127.191 79.5181ZM126.945 80.0901L126.93 80.0725L127.191 79.5181L127.297 79.6378L127.594 80.0005C127.509 80.1708 127.424 80.341 127.346 80.5185L126.954 80.0725L126.945 80.0901ZM127.335 80.5337L126.945 80.0901L126.418 81.1685L126.394 81.1851L126.383 81.2088C116.41 87.9718 105.745 93.6497 94.5669 98.146C78.1895 104.798 61.676 108.848 46.8426 109.84H46.8182C41.7912 100.298 38.1107 90.1054 35.8816 79.5523V79.4722C35.0656 75.7583 34.4415 72.0763 33.9935 68.4584L33.8798 67.5338L33.8815 67.5299C32.5319 56.7695 32.872 45.8642 34.8895 35.2089H34.5295H34.3855C32.307 46.1683 31.9968 57.3901 33.4666 68.4475L33.4654 68.4504C33.4654 68.4737 33.4658 68.4969 33.4666 68.5202L33.4574 68.4504C30.2309 75.9553 28.0763 83.8771 27.0568 91.9828C26.8248 93.9919 26.6968 95.9849 26.6568 97.8659L27.0328 98.1701L27.0088 98.1701L26.6328 97.8659V98.4982L27.0088 98.7944L27.0088 98.1701L27.0328 98.1887V98.7944C32.7331 103.211 38.9305 106.945 45.4985 109.92C45.7164 110.025 45.9446 110.127 46.167 110.226C46.3366 110.302 46.5028 110.376 46.6586 110.449H46.6426C46.2426 110.28 45.8505 110.104 45.4665 109.92C41.8378 110.136 38.2 110.152 34.5695 109.968C32.2973 109.851 30.1291 109.651 28.0649 109.368H28.0969L28.0557 109.363C27.2951 105.893 26.9384 102.346 26.9928 98.7944L26.6168 98.4982C26.562 102.14 26.9433 105.776 27.7527 109.327C23.3761 108.763 19.0901 107.639 14.9997 105.982C8.51116 103.245 4.03075 99.1946 1.93456 94.0159C-0.777683 87.3404 0.710452 79.112 6.10294 70.3154L6.44697 69.7631L6.45674 69.7811L6.11894 70.3234C7.30374 72.4799 8.6155 74.5642 10.0473 76.5652L10.0553 76.5907H10.0473L10.0615 76.6104C12.2088 83.4152 17.0145 90.1157 23.8565 96.169C24.742 96.9534 25.6647 97.7298 26.6248 98.4982V97.8659C25.7287 97.1455 24.8646 96.4171 24.0246 95.6808C17.624 90.0778 13.0476 83.8345 10.7114 77.5112L10.0615 76.6104L10.0553 76.5907L10.7194 77.5112C10.4953 76.9029 10.2873 76.2945 10.1113 75.6862L10.1355 75.7223C10.3097 76.3213 10.5148 76.9202 10.7354 77.5192L10.6153 76.3986C10.4482 76.1705 10.2882 75.9497 10.1355 75.7223L10.1273 75.6942L10.1113 75.6862L10.0721 75.6307C9.11869 72.5013 8.77832 69.2168 9.07009 65.9576L9.07921 65.9451C9.54325 65.3207 10.0233 64.6964 10.5273 64.0641C10.5273 63.8491 10.5697 63.4539 10.6028 63.1459L10.6129 63.0512L10.6233 62.9515C10.154 63.5306 9.69238 64.102 9.25333 64.6732C9.32375 64.222 9.40194 63.7709 9.49525 63.3197C9.71811 62.2597 10.0149 61.2166 10.3833 60.198C9.93221 61.3708 9.57636 62.578 9.31923 63.8079C9.2426 64.153 9.18064 64.4906 9.12634 64.8421C9.12036 64.8505 9.11447 64.859 9.10869 64.8677L9.09844 64.8834L9.09521 64.8885C8.0089 66.3109 7.0103 67.7174 6.11535 69.1238C1.68611 60.5621 0.895301 52.8726 3.98275 46.895C8.13472 38.8116 18.926 34.6494 34.381 35.1607L34.3775 35.1769H34.5295H34.8752L34.8735 35.1849C40.8008 35.4559 46.6917 36.2596 52.4751 37.5861L52.8992 37.1059C47.0298 35.7407 41.0492 34.9081 35.0303 34.6183C35.5012 32.409 36.0438 30.2714 36.6737 28.2372C40.9941 13.9257 49.1628 3.86435 60.1078 1.39104C61.1671 1.15297 62.2419 0.989818 63.3241 0.902786C62.0662 0.974897 60.8164 1.1516 59.5878 1.43106C48.6428 3.89636 40.474 13.9657 36.1217 28.2372C35.5078 30.263 34.9654 32.3842 34.5262 34.6166H34.5021L34.5055 34.6006H34.4975C18.7601 34.0483 7.73509 38.3305 3.4627 46.6069C0.270411 52.8582 1.11049 60.8224 5.76691 69.683C0.110397 78.7678 -1.43374 87.2923 1.35051 94.256C3.5107 99.5948 8.11112 103.757 14.7597 106.558C18.9789 108.269 23.4034 109.421 27.9209 109.984C29.1107 115.125 31.7355 119.821 35.4896 123.527C31.8569 119.791 29.3383 115.115 28.2169 110.024C30.2331 110.291 32.34 110.483 34.5375 110.601C38.572 110.79 42.6142 110.739 46.6426 110.449C49.5835 115.921 53.1315 121.044 57.2196 125.721C62.388 131.556 67.9885 135.854 73.7571 138.279C74.2901 138.51 74.8231 138.717 75.3482 138.908L75.3412 138.912L75.3505 138.915C67.2564 142.698 59.9942 143.441 54.2033 141.001C53.6545 140.766 53.1202 140.498 52.6031 140.2C48.7868 138.119 45.8425 134.461 43.9064 129.547L43.1063 129.05C45.0665 134.461 48.1947 138.463 52.3471 140.745C52.8661 141.039 53.4002 141.306 53.9473 141.545C60.0598 144.106 67.6845 143.266 76.1573 139.184L76.1482 139.181L76.4133 139.064L75.6224 138.787L75.6292 138.783C75.1732 138.615 74.7171 138.439 74.2691 138.247C68.5086 135.846 62.8921 131.516 57.7396 125.713C53.7296 121.132 50.2412 116.12 47.3387 110.769L46.6906 110.449H46.6586L46.3509 109.88H46.3683L46.6586 110.417H46.7226H47.1886L47.2027 110.441L47.8347 110.401L47.83 110.398C62.4802 109.267 78.7115 105.258 94.775 98.7224C105.64 94.3422 116.026 88.8572 125.77 82.3537C125.894 82.1403 126.006 81.9268 126.118 81.7134L126.119 81.713C126.192 81.574 126.265 81.4351 126.341 81.2961C126.31 81.3617 126.279 81.4281 126.248 81.4945C126.112 81.7843 125.975 82.0765 125.834 82.3297L126.782 81.6821L126.766 81.7143L125.842 82.3457C124.722 84.6083 123.54 86.8654 122.297 89.1173C116.148 100.414 108.6 110.89 99.8329 120.298L99.7516 120.302H99.7754L99.7506 120.303C89.8536 120.643 79.9532 119.731 70.2848 117.588H70.2047C62.9303 116.018 55.8167 113.778 48.9548 110.897L47.8267 110.417L47.1867 110.449H46.7066L47.3346 110.724L47.3627 110.777L48.7708 111.377C55.6295 114.259 62.7406 116.5 70.0127 118.069H70.0927C79.6722 120.192 89.48 121.107 99.2867 120.79L99.2794 120.798H99.2888C95.1288 125.157 90.5871 129.135 85.7181 132.684C82.5499 135.01 79.1755 137.041 75.6372 138.751L76.4373 139.032C79.8157 137.353 83.0438 135.387 86.0862 133.157C91.1358 129.465 95.8359 125.317 100.127 120.766H100.11L100.565 120.297L100.568 120.297L100.151 120.742C107.218 120.477 114.223 119.323 121.001 117.308C129.194 114.787 135.955 110.977 140.643 106.102C140.641 106.096 140.638 106.089 140.636 106.083C140.692 106.022 140.749 105.961 140.806 105.901C140.909 105.793 141.011 105.685 141.107 105.574L141.107 105.565C143.42 103.086 145.217 100.173 146.396 96.9934C145.183 100.074 143.39 102.892 141.113 105.295C140.31 98.9592 136.918 91.7688 131.082 84.1947C130.177 83.0292 129.224 81.8689 128.224 80.7138L128.202 80.7289L128.187 80.7111L127.764 81.01L127.362 80.5528C127.186 80.929 127.002 81.3052 126.818 81.6734H126.794L126.818 81.6574C127.001 81.2913 127.184 80.9174 127.359 80.5434L127.754 80.993L128.174 80.6962L127.794 80.2566L127.817 80.2408L127.807 80.23L127.826 80.2166L127.634 79.9925L127.634 79.9926C127.551 80.1584 127.468 80.3242 127.392 80.4967L127.355 80.5226L127.354 80.5208L127.35 80.5234L127.346 80.5185L127.341 80.5297L127.335 80.5337ZM127.335 80.5337L127.338 80.5368L127.341 80.5297L127.35 80.5234L127.351 80.5249L127.346 80.5288L127.356 80.5406L126.402 81.2011L126.418 81.1685L127.335 80.5337ZM127.362 80.5368L127.351 80.5249L127.355 80.5226L127.362 80.5368ZM127.362 80.5368L127.356 80.5406L127.359 80.5434L127.362 80.5368ZM127.392 80.4967L127.794 80.2166L127.807 80.23L127.378 80.5288L127.392 80.4967ZM127.76 81.0241C127.451 81.2457 127.135 81.4595 126.818 81.6734H126.826L126.766 81.7143C125.516 84.2859 124.178 86.8498 122.818 89.4295C116.737 100.569 109.306 110.915 100.694 120.235L100.623 120.238L100.568 120.297L100.639 120.294L100.694 120.235C107.64 119.946 114.523 118.796 121.185 116.812C129.236 114.335 135.916 110.637 140.587 105.847C140.591 105.868 140.594 105.889 140.598 105.91L140.603 105.943V106.118L140.636 106.083C140.62 106.038 140.611 105.991 140.603 105.943V105.846L140.602 105.832L140.611 105.822L140.602 105.832C139.918 99.4797 136.55 92.2251 130.634 84.5469C129.724 83.3647 128.766 82.1904 127.76 81.0241ZM127.76 81.0241L127.77 81.017L127.764 81.01L127.754 81.017L127.76 81.0241ZM140.602 105.832L140.587 105.846L140.587 105.847L140.602 105.832L140.602 105.832ZM141.113 105.295L141.099 105.31V105.327V105.574L141.107 105.565L141.115 105.31L141.113 105.295ZM100.11 120.766H99.3194L99.2888 120.798H100.079L100.11 120.766ZM99.2867 120.79C99.337 120.738 99.3873 120.686 99.4373 120.634C99.5184 120.55 99.5988 120.467 99.6774 120.382L99.6695 120.391L99.6302 120.433C99.5955 120.47 99.5607 120.506 99.5261 120.543L99.5233 120.546C99.4453 120.628 99.3683 120.709 99.2954 120.79L99.2867 120.79ZM47.3346 110.724L47.3627 110.737L47.1867 110.449L47.3346 110.724ZM100.565 120.297L99.7994 120.334L99.8329 120.298L100.599 120.262L100.565 120.297ZM126.794 81.6734L126.782 81.6821L126.786 81.6734H126.794ZM46.9956 110.042C47.0609 110.169 47.1318 110.296 47.2027 110.417H47.1886C47.1167 110.293 47.0452 110.164 46.9798 110.035L46.9956 110.042ZM46.9862 110.023L47.83 110.398L47.8027 110.401L46.9956 110.042L46.9862 110.023ZM46.9642 109.99L46.8746 109.84H46.8426L46.912 109.968L46.6485 109.856H46.8266L46.8182 109.84H46.6106H46.5266L46.3746 109.773L46.2623 109.718L46.2506 109.696L46.1879 109.668C41.2116 100.188 37.5632 90.0679 35.3456 79.5923V79.5122C34.6095 76.1238 34.0255 72.7593 33.5934 69.4189C33.5813 69.3361 33.5672 69.2539 33.5528 69.172L33.4666 68.5202C33.4736 68.7228 33.5094 68.9256 33.5455 69.1308L33.5528 69.172L33.5854 69.4189C30.4929 76.7444 28.4226 84.4608 27.4329 92.351C27.2089 94.336 27.0328 96.2811 27.0328 98.1701V98.1887C32.9339 102.771 39.3652 106.625 46.1879 109.668L46.2026 109.696L46.2391 109.712L46.3268 109.873L46.3306 109.88H46.3509L46.3466 109.872L46.2659 109.724L46.3746 109.773L46.5128 109.84H46.3466L46.3683 109.88H46.5946L46.5128 109.84H46.5266L46.5626 109.856H46.6466L46.9169 109.976L46.9386 110.016L46.9798 110.035L46.9706 110.016L46.9862 110.023L46.9706 109.992L46.9642 109.99ZM46.9642 109.99L46.9706 110L46.9169 109.976L46.912 109.968L46.9642 109.99ZM46.2659 109.724L46.2391 109.712L46.2346 109.704L46.2623 109.718L46.2659 109.724ZM46.6466 109.856H46.6485L46.6106 109.84L46.6466 109.856ZM75.3572 138.912L75.3482 138.908L75.6132 138.783L75.6224 138.787L75.3572 138.912ZM75.3572 138.912L75.3505 138.915L76.1413 139.184L76.1482 139.181L75.3572 138.912ZM28.2158 110.02L28.2169 110.024L27.9209 109.984C27.8929 109.876 27.8669 109.766 27.8409 109.656C27.815 109.546 27.7891 109.437 27.7612 109.329L27.7943 109.333C27.8218 109.44 27.8473 109.548 27.8729 109.656C27.8989 109.766 27.9249 109.876 27.9529 109.984L28.2158 110.02ZM28.2158 110.02C28.1688 109.838 28.1275 109.651 28.087 109.468L28.0708 109.394C28.1169 109.602 28.1645 109.817 28.2489 110.024L28.2158 110.02ZM5.76835 69.6807C5.87857 69.4996 5.99651 69.3186 6.11453 69.1375L6.11894 69.1308L6.11535 69.1238L6.11094 69.1308C5.99144 69.3141 5.87988 69.4974 5.76835 69.6807ZM34.9885 34.6406L34.8752 35.1769H34.8895L35.0044 34.6406H35.0256L35.0303 34.6183L35.0094 34.6173L35.0096 34.6166H34.9936L35.0094 34.6173L35.0044 34.6406H34.9885ZM34.9885 34.6406H34.5775H34.5215L34.5262 34.6166H34.5535L34.9936 34.6166L34.9885 34.6406ZM34.5021 34.6166L34.3855 35.1608L34.381 35.1607L34.4975 34.6166H34.5021ZM8.97368 65.7019C9.00724 65.4233 9.04775 65.1629 9.09521 64.8885C9.04876 65.157 9.00897 65.4289 8.97368 65.7019ZM8.92827 66.1408C8.94165 65.9871 8.95678 65.8422 8.97368 65.7019C8.95428 65.8521 8.93623 66.0026 8.91919 66.1532C8.02311 67.3698 7.19904 68.5731 6.44697 69.7631L6.46297 69.7711L6.45674 69.7811C7.40557 71.528 8.44147 73.2261 9.56054 74.869L9.58325 74.9578L9.59872 74.981C9.72924 75.5112 9.88103 76.0347 10.0473 76.5652L10.0713 76.5987C9.90458 76.068 9.75222 75.5445 9.62101 75.0145C9.77986 75.2533 9.94329 75.5012 10.1113 75.7582C10.0981 75.7158 10.085 75.6732 10.0721 75.6307C9.91236 75.4041 9.75682 75.1776 9.60545 74.9511L9.59926 74.9258L9.56054 74.869C8.83821 72.024 8.62104 69.0739 8.91919 66.1532L8.92827 66.1408ZM9.60545 74.9511L9.62101 75.0145L9.59872 74.981L9.58325 74.9178L9.60545 74.9511ZM8.92827 66.1408L8.9272 66.1532L9.07009 65.9576L9.07121 65.9451L8.92827 66.1408ZM9.22322 64.7124L9.25333 64.6732L9.24722 64.7124C9.23929 64.7235 9.22947 64.7346 9.21882 64.7458L9.22322 64.7124ZM9.2186 64.7461L9.22322 64.7124C9.20893 64.7324 9.19361 64.7524 9.178 64.7728L9.17786 64.773L9.17773 64.7732L9.17759 64.7734L9.17745 64.7736C9.16043 64.7958 9.14308 64.8185 9.12634 64.8421L9.12258 64.8665C9.1204 64.8737 9.11921 64.8811 9.11921 64.8885L9.12258 64.8665C9.13285 64.8322 9.16496 64.8001 9.19626 64.7688C9.20386 64.7611 9.21142 64.7536 9.2186 64.7461ZM9.205 64.845C9.19314 64.9271 9.18055 65.0079 9.1681 65.0878L9.16806 65.088L9.16799 65.0884C9.1227 65.3791 9.07921 65.6581 9.07921 65.9451C9.10773 65.5598 9.15533 65.2064 9.205 64.845ZM9.205 64.845L9.21156 64.7973L9.2186 64.7461L9.21882 64.7458L9.21479 64.7756L9.205 64.845ZM27.7612 109.329L27.7609 109.328L27.7527 109.327L27.7529 109.328L27.7612 109.329ZM27.7943 109.333L27.7929 109.328L28.0557 109.363L28.0569 109.368L27.7943 109.333ZM33.4666 68.4475L33.4734 68.4984L33.8798 67.5338L33.8735 67.4819L33.4666 68.4475ZM126.341 81.2961C126.358 81.2644 126.376 81.2328 126.394 81.2011L126.383 81.2088L126.341 81.2961ZM116.641 8.17062C107.992 4.5287 97.0072 5.80937 85.5901 11.1162C74.5171 16.2629 63.0281 25.2036 52.9152 37.1059L52.4991 37.5941L53.0752 37.7222L53.4832 37.2419C63.5481 25.4517 74.9652 16.5911 85.9582 11.4844C97.3832 6.16956 108.36 4.88889 117.033 8.53881C118.643 9.20781 120.173 10.0563 121.593 11.0681C122.48 11.6942 123.32 12.3844 124.106 13.1332C121.959 11.0181 119.428 9.33356 116.649 8.17062H116.641ZM52.4991 37.6101L53.0592 37.7222H53.0672C51.067 40.0861 49.1228 42.5648 47.2347 45.1581L47.1867 45.2222C41.9353 52.456 37.515 60.2586 34.0095 68.4824L33.8895 67.5059C37.3747 59.5143 41.7208 51.9268 46.8506 44.878L46.8986 44.8139C48.7015 42.3113 50.5683 39.91 52.4991 37.6101ZM86.3902 140.472C83.0178 140.655 79.6422 140.177 76.4533 139.064L76.1973 139.184C79.473 140.298 82.9404 140.736 86.3902 140.472ZM76.4133 44.8139C68.9991 41.6525 61.3276 39.1327 53.4832 37.282L53.0752 37.7622C60.9817 39.6046 68.7149 42.1246 76.1893 45.2942C79.923 46.895 83.6566 48.6399 87.3903 50.5289C103.392 58.7493 117.193 69.0987 126.89 80.0565L127.154 79.4962C117.433 68.5705 103.616 58.237 87.6303 50.0167C83.878 48.0957 80.1416 46.3507 76.4133 44.8139ZM141.139 105.574L141.125 105.59L141.123 105.574H141.139ZM141.125 105.59C141.668 109.313 141.071 113.114 139.411 116.492C137.059 121.078 132.618 124.456 126.394 126.457C124.385 127.136 122.325 127.653 120.233 128.002L121.385 127.201C130.082 125.609 136.019 121.823 138.883 116.22C140.438 113.095 141.047 109.584 140.635 106.118C140.661 106.09 140.687 106.062 140.713 106.034L140.752 105.993L140.838 105.901C140.936 105.798 141.033 105.695 141.125 105.59Z" fill="white"/>
</g>
</svg>
