<svg width="100" height="31" viewBox="0 0 100 31" fill="none" xmlns="http://www.w3.org/2000/svg">
<path d="M40.0405 0.515793L34.9584 30.5495H43.0865L48.1728 0.515793H40.0405Z" fill="white"/>
<path d="M28.1431 0.549468L20.1823 21.0316L19.3335 17.9389C17.7635 14.2126 13.3064 8.86105 8.07373 5.48842L15.3531 30.5347L23.9536 30.52L36.7542 0.543152L28.1431 0.549468Z" fill="white"/>
<path d="M16.2479 2.69894C15.7754 0.869468 14.4061 0.324205 12.7064 0.258942H0.104528L0 0.856836C9.80683 3.25263 16.2959 9.02526 18.9886 15.9663L16.2479 2.69894Z" fill="white"/>
<path d="M64.6465 6.27368C67.3057 6.23158 69.2332 6.81684 70.73 7.42316L71.4638 7.77053L72.5635 1.26105C70.9537 0.652632 68.4304 0 65.282 0C57.2501 0 51.5888 4.07368 51.5449 9.91158C51.4927 14.2253 55.5776 16.6337 58.6633 18.0716C61.8305 19.5453 62.8925 20.4821 62.8779 21.7979C62.8528 23.8084 60.3525 24.7305 58.0173 24.7305C54.7623 24.7305 53.0334 24.2779 50.3638 23.1579L49.3164 22.6779L48.1729 29.4C50.0753 30.24 53.5853 30.9621 57.2292 31C65.7733 31 71.3258 26.9747 71.3844 20.7368C71.4199 17.3242 69.252 14.72 64.5545 12.5832C61.7113 11.1895 59.972 10.2632 59.9887 8.85684C59.9887 7.60842 61.4647 6.27368 64.6465 6.27368Z" fill="white"/>
<path fill-rule="evenodd" clip-rule="evenodd" d="M87.143 0.549469H93.423L99.9999 30.5663H92.4593C92.4593 30.5663 91.7109 27.1158 91.4683 26.0674C90.8432 26.0674 88.2259 26.0638 85.7618 26.0605C83.57 26.0575 81.4993 26.0547 81.0594 26.0547C80.7438 26.8653 79.3514 30.5663 79.3514 30.5663H70.8157L82.8845 3.0421C83.7416 1.08421 85.1925 0.549469 87.143 0.549469ZM86.6371 11.5137C86.6371 11.5137 84.0678 18.1832 83.3988 19.9074H90.1513L88.2677 11.2358L87.72 8.64631C87.5144 9.19931 87.2403 9.91704 87.0191 10.4964C86.7881 11.1015 86.6146 11.5556 86.6371 11.5137Z" fill="white"/>
</svg>
