<svg width="150" height="32" viewBox="0 0 150 32" fill="none" xmlns="http://www.w3.org/2000/svg">
<path fill-rule="evenodd" clip-rule="evenodd" d="M84.5609 1.03714C85.2749 1.06569 85.6067 1.70504 85.8597 2.45856L94.6868 27.536C94.6868 27.867 94.4113 28.1353 94.0684 28.1353H92.1399C91.3752 28.1353 90.9817 27.5245 90.7568 26.7881L88.9239 21.5135C88.8002 21.1596 88.4685 20.9198 88.0974 20.9198H78.2807C77.904 20.9198 77.5723 21.1596 77.4486 21.5192L75.6888 26.7368C75.4695 27.4732 75.0928 28.084 74.3619 28.084H72.5177C72.1916 28.084 71.9274 27.8157 71.9274 27.4846L80.7545 2.44143C80.9794 1.73358 81.2774 1.12848 81.8734 1.03714C81.924 1.03143 81.9802 1.02573 82.0364 1.02573H82.6099C82.6662 1.02573 82.7224 1.03143 82.773 1.03714H83.9199H84.5159H84.5609ZM83.1103 4.78191L78.6574 17.9571H87.6926L83.1103 4.78191Z" fill="white"/>
<path d="M111.666 1.10564C111.43 1.01431 110.064 1.02573 110.064 1.02573C109.148 1.04856 108.563 1.02573 108.152 1.60228C108.091 1.68791 108.046 1.77925 108.001 1.87058L102.53 13.887L96.8964 1.87629C96.8514 1.78495 96.8065 1.69362 96.7446 1.60799C96.3342 1.03143 95.7495 1.04856 94.833 1.03143C94.833 1.03143 93.4668 1.02002 93.2306 1.11135C92.6684 1.32828 93.0395 2.03042 93.3037 2.60698L100.214 16.6042C100.528 17.2435 100.692 17.9457 100.692 18.6593V27.1078C100.692 27.6787 101.147 28.1411 101.709 28.1411H103.154C103.716 28.1411 104.172 27.6787 104.172 27.1078V18.6992C104.172 17.9856 104.335 17.2835 104.65 16.6442L111.588 2.60127C111.858 2.02471 112.229 1.32257 111.666 1.10564Z" fill="white"/>
<path d="M138.08 14.1781L121.494 0.0724129C121.371 -0.0303399 121.191 -0.0246314 121.078 0.0952469L118.627 2.6869L132.171 14.1781L118.627 25.6693L121.078 28.2609C121.191 28.3808 121.371 28.3865 121.494 28.2838L138.08 14.1781Z" fill="white"/>
<path d="M150 14.2923L133.414 0.186579C133.29 0.0838264 133.11 0.0895349 132.998 0.209413L130.547 2.80107L144.091 14.2923L130.547 25.7835L132.998 28.3751C133.11 28.495 133.29 28.5007 133.414 28.3979L150 14.2923Z" fill="white"/>
<path d="M20.3025 1.00861H18.211C17.7724 1.00861 17.4238 1.36824 17.4238 1.80779V27.2391C17.4238 27.7015 17.7949 28.084 18.2559 28.084H20.2688C20.7242 28.084 21.1009 27.7072 21.1009 27.2391V1.8135C21.0953 1.36824 20.741 1.00861 20.3025 1.00861Z" fill="white"/>
<path d="M12.8191 24.8587H3.48027V1.8135C3.48027 1.36824 3.12605 1.01431 2.69313 1.01431H0.787136C0.348589 1.01431 0 1.37395 0 1.8135V24.8644V26.9708C0 27.496 0.416058 27.9184 0.933318 27.9184H3.48589H12.8247C13.2745 27.9184 13.6343 27.5531 13.6343 27.0964V25.6807C13.6287 25.2297 13.2632 24.8587 12.8191 24.8587Z" fill="white"/>
<path fill-rule="evenodd" clip-rule="evenodd" d="M63.342 1.13991C66.4174 1.13991 68.0255 1.70505 69.1893 2.50424C70.7411 3.57743 72.3716 5.89508 72.3772 9.12609C72.3772 16.5471 65.664 17.6146 65.1412 17.6146H59.7774V26.7425C59.7774 27.4903 59.1814 28.0897 58.4505 28.0897H57.4272C56.6907 28.0897 56.1003 27.4846 56.1003 26.7425V2.44715C56.1003 1.72217 56.6794 1.13991 57.3879 1.13991H58.4899H63.342ZM60.1822 14.8175H63.9211C64.2697 14.8175 68.7001 14.1153 68.6945 9.21171C68.6945 7.07674 67.6206 5.54686 66.5917 4.83901C65.8215 4.30812 64.7588 3.93707 62.7292 3.93707H59.7718V14.8175H60.1822Z" fill="white"/>
<path fill-rule="evenodd" clip-rule="evenodd" d="M52.2152 28.4322C52.3895 28.5007 52.5526 28.5806 52.6987 28.6891C53.3172 29.14 53.424 29.7166 53.424 29.7166C53.424 29.7166 53.5533 32 52.8224 32C51.3044 32 49.1847 30.8183 44.9117 27.6045C44.3157 27.1649 43.8828 27.1592 43.4386 27.3533H43.433C41.9206 28.0611 40.2001 28.4265 38.3279 28.4265C29.1128 28.4265 26.5433 21.9473 26.5433 14.3779C26.5433 6.80843 30.3666 0.671799 38.3279 0.671799C46.9808 0.671799 50.1687 6.80843 50.1687 14.3779C50.1687 18.6593 49.061 22.0501 47.1494 24.4305L47.1438 24.4362C47.1326 24.4505 47.1199 24.4662 47.1073 24.4819C47.0946 24.4976 47.082 24.5133 47.0707 24.5276C46.9526 24.716 46.8177 25.1669 47.6892 25.7378C47.87 25.8562 48.074 25.9924 48.2947 26.1397C49.4465 26.9085 51.0545 27.9819 52.2152 28.4322ZM30.3216 14.3779V14.435C30.3216 19.5897 31.328 25.1955 38.3391 25.1955C44.4451 25.1955 46.396 20.5488 46.396 14.435V14.3779C46.3904 9.24024 45.3221 3.78863 38.3391 3.78863C32.177 3.78863 30.3328 9.24024 30.3216 14.3779Z" fill="white"/>
</svg>
