<svg width="332" height="30" viewBox="0 0 332 30" fill="none" xmlns="http://www.w3.org/2000/svg">
<path fill-rule="evenodd" clip-rule="evenodd" d="M299.965 22.7109V15.8016V15.8002H303.559C305.041 15.8011 306.286 15.3169 307.295 14.3475C308.315 13.4276 308.885 12.1048 308.856 10.7261C308.876 9.35501 308.307 8.04207 307.295 7.12505C306.295 6.15039 304.95 5.6186 303.559 5.64788H297.789V22.7109H299.965ZM299.965 13.7049V7.74859V7.74723H303.613C304.426 7.72421 305.21 8.05389 305.766 8.6526C306.325 9.20013 306.64 9.95219 306.64 10.7377C306.64 11.5231 306.325 12.2752 305.766 12.8227C305.203 13.4088 304.422 13.7291 303.613 13.7049H299.965Z" fill="white"/>
<path fill-rule="evenodd" clip-rule="evenodd" d="M317.677 11.9541C316.747 11.0882 315.477 10.6553 313.869 10.6553C311.804 10.6553 310.244 11.4177 309.19 12.9425L311.106 14.1583C311.814 13.1254 312.776 12.609 313.991 12.609C314.766 12.5998 315.515 12.8852 316.091 13.4081C316.664 13.8859 316.994 14.5983 316.989 15.3482V15.8492C316.153 15.3727 315.089 15.1344 313.798 15.1344C312.284 15.1363 311.074 15.4939 310.168 16.2073C309.262 16.9207 308.809 17.8814 308.809 19.0895C308.789 20.1895 309.263 21.2398 310.098 21.9485C310.957 22.7109 312.025 23.0921 313.302 23.0921C314.797 23.0921 315.995 22.425 316.896 21.0908H316.991V22.7109H319.072V15.5157C319.073 14.0072 318.608 12.82 317.677 11.9541ZM311.776 20.5666C311.32 20.2357 311.052 19.7031 311.055 19.1371C311.055 18.5013 311.35 17.9717 311.946 17.536C312.536 17.1067 313.273 16.8921 314.157 16.8921C315.371 16.8921 316.316 17.1644 316.995 17.7089C316.995 18.6293 316.634 19.4312 315.914 20.1146C315.265 20.7687 314.385 21.1369 313.467 21.1384C312.854 21.15 312.257 20.948 311.776 20.5666Z" fill="white"/>
<path d="M331.017 11.0365L323.752 27.8572H321.507L324.202 21.9717L319.426 11.0365H321.79L325.243 19.423H325.29L328.648 11.0365L331.017 11.0365Z" fill="white"/>
<path d="M291.173 14.3121C291.174 13.6441 291.118 12.9773 291.006 12.319H281.83V16.0943H287.086C286.868 17.3127 286.166 18.3888 285.142 19.0731V21.5237H288.279C290.115 19.8178 291.173 17.2951 291.173 14.3121Z" fill="white"/>
<path d="M281.83 23.8913C284.456 23.8913 286.667 23.0227 288.279 21.5251L285.142 19.0745C284.27 19.6708 283.145 20.0112 281.83 20.0112C279.293 20.0112 277.139 18.2876 276.369 15.965H273.138V18.4905C274.789 21.8014 278.153 23.8912 281.83 23.8913Z" fill="white"/>
<path d="M276.369 15.9649C275.961 14.7478 275.961 13.4298 276.369 12.2127V9.68726H273.138C271.756 12.4566 271.756 15.721 273.138 18.4904L276.369 15.9649Z" fill="white"/>
<path d="M281.83 8.16654C283.218 8.1437 284.559 8.67188 285.563 9.63691L288.34 6.83913C286.579 5.17282 284.246 4.25798 281.83 4.28641C278.153 4.28658 274.789 6.37629 273.138 9.68728L276.369 12.2128C277.139 9.89014 279.293 8.16654 281.83 8.16654Z" fill="white"/>
<path fill-rule="evenodd" clip-rule="evenodd" d="M207.053 7.51979C207.435 7.53508 207.613 7.87759 207.749 8.28126L212.476 21.7156C212.476 21.893 212.329 22.0367 212.145 22.0367H211.112C210.703 22.0367 210.492 21.7095 210.371 21.315L209.39 18.4893C209.323 18.2997 209.146 18.1712 208.947 18.1712H203.689C203.488 18.1712 203.31 18.2997 203.244 18.4923L202.301 21.2874C202.184 21.6819 201.982 22.0092 201.59 22.0092H200.603C200.428 22.0092 200.286 21.8654 200.286 21.6881L205.014 8.27209C205.135 7.89288 205.294 7.56872 205.614 7.51979C205.641 7.51673 205.671 7.51367 205.701 7.51367H206.008C206.038 7.51367 206.068 7.51673 206.095 7.51979H206.71H207.029H207.053ZM206.276 9.52591L203.891 16.5841H208.73L206.276 9.52591Z" fill="white"/>
<path d="M221.57 7.55649C221.444 7.50756 220.712 7.51367 220.712 7.51367C220.221 7.5259 219.908 7.51367 219.688 7.82254C219.655 7.86841 219.631 7.91734 219.607 7.96627L216.677 14.4036L213.66 7.96933C213.636 7.9204 213.612 7.87147 213.578 7.8256C213.359 7.51673 213.045 7.5259 212.555 7.51673C212.555 7.51673 211.823 7.51061 211.696 7.55954C211.395 7.67575 211.594 8.0519 211.736 8.36077L215.436 15.8593C215.605 16.2018 215.692 16.5779 215.692 16.9602V21.4862C215.692 21.792 215.936 22.0397 216.237 22.0397H217.011C217.312 22.0397 217.556 21.792 217.556 21.4862V16.9816C217.556 16.5993 217.644 16.2232 217.812 15.8807L221.528 8.35771C221.673 8.04884 221.872 7.67269 221.57 7.55649Z" fill="white"/>
<path d="M235.718 14.5596L226.834 7.00303C226.768 6.94798 226.672 6.95104 226.611 7.01526L225.298 8.40364L232.553 14.5596L225.298 20.7156L226.611 22.104C226.672 22.1682 226.768 22.1713 226.834 22.1163L235.718 14.5596Z" fill="white"/>
<path d="M242.102 14.6208L233.218 7.06418C233.152 7.00914 233.056 7.0122 232.995 7.07642L231.682 8.4648L238.937 14.6208L231.682 20.7768L232.995 22.1652C233.056 22.2294 233.152 22.2325 233.218 22.1774L242.102 14.6208Z" fill="white"/>
<path d="M172.637 7.50452H171.516C171.281 7.50452 171.095 7.69718 171.095 7.93265V21.5566C171.095 21.8043 171.293 22.0092 171.54 22.0092H172.618C172.862 22.0092 173.064 21.8073 173.064 21.5566V7.93571C173.061 7.69718 172.871 7.50452 172.637 7.50452Z" fill="white"/>
<path d="M168.629 20.2813H163.627V7.93571C163.627 7.69717 163.437 7.50757 163.205 7.50757H162.184C161.949 7.50757 161.763 7.70023 161.763 7.93571V20.2844V21.4128C161.763 21.6942 161.986 21.9205 162.263 21.9205H163.63H168.632C168.872 21.9205 169.065 21.7248 169.065 21.4801V20.7217C169.062 20.4801 168.866 20.2813 168.629 20.2813Z" fill="white"/>
<path fill-rule="evenodd" clip-rule="evenodd" d="M195.688 7.57495C197.335 7.57495 198.197 7.87771 198.82 8.30584C199.651 8.88077 200.524 10.1224 200.527 11.8533C200.527 15.8288 196.932 16.4007 196.652 16.4007H193.779V21.2906C193.779 21.6912 193.46 22.0123 193.068 22.0123H192.52C192.126 22.0123 191.81 21.6882 191.81 21.2906V8.27526C191.81 7.88688 192.12 7.57495 192.499 7.57495H193.09H195.688ZM193.996 14.9022H195.998C196.185 14.9022 198.558 14.5261 198.555 11.8991C198.555 10.7554 197.98 9.93582 197.429 9.55661C197.016 9.27221 196.447 9.07343 195.36 9.07343H193.776V14.9022H193.996Z" fill="white"/>
<path fill-rule="evenodd" clip-rule="evenodd" d="M189.729 22.1957C189.822 22.2324 189.909 22.2752 189.988 22.3333C190.319 22.5749 190.376 22.8838 190.376 22.8838C190.376 22.8838 190.446 24.1071 190.054 24.1071C189.241 24.1071 188.106 23.474 185.817 21.7523C185.498 21.5168 185.266 21.5138 185.028 21.6177H185.025C184.215 21.997 183.294 22.1927 182.291 22.1927C177.355 22.1927 175.979 18.7217 175.979 14.6666C175.979 10.6116 178.027 7.3241 182.291 7.3241C186.925 7.3241 188.633 10.6116 188.633 14.6666C188.633 16.9602 188.039 18.7768 187.016 20.052L187.013 20.055C187.007 20.0627 187 20.0711 186.993 20.0795C186.986 20.0879 186.979 20.0963 186.973 20.104C186.91 20.2049 186.838 20.4465 187.305 20.7523C187.402 20.8157 187.511 20.8887 187.629 20.9676C188.246 21.3795 189.107 21.9545 189.729 22.1957ZM178.003 14.6666V14.6972C178.003 17.4587 178.542 20.4618 182.297 20.4618C185.567 20.4618 186.612 17.9725 186.612 14.6972V14.6666C186.609 11.9143 186.037 8.99383 182.297 8.99383C178.996 8.99383 178.009 11.9143 178.003 14.6666Z" fill="white"/>
<ellipse cx="98.4261" cy="15" rx="14.8668" ry="15" fill="white"/>
<ellipse cx="116.896" cy="15" rx="14.8668" ry="15" fill="white"/>
<path d="M102.03 14.9997C102.03 19.7625 104.23 24.0064 107.661 26.7541C111.092 24.0063 113.292 19.7625 113.292 14.9997C113.292 10.2369 111.092 5.99313 107.661 3.24536C104.23 5.99324 102.03 10.237 102.03 14.9997Z" fill="#E3EAF8"/>
<path d="M21.4455 7.2406L18.7235 23.3301H23.0769L25.8011 7.2406H21.4455Z" fill="white"/>
<path d="M15.0733 7.25863L10.8095 18.2312L10.3549 16.5744C9.51399 14.5782 7.12681 11.7113 4.32422 9.9045L8.22298 23.3222L12.8294 23.3143L19.6853 7.25525L15.0733 7.25863Z" fill="white"/>
<path d="M8.70224 8.41005C8.44919 7.42997 7.71579 7.13787 6.80548 7.10291H0.0559846L0 7.42321C5.25247 8.70666 8.72799 11.7991 10.1702 15.5176L8.70224 8.41005Z" fill="white"/>
<path d="M34.6242 10.3251C36.0484 10.3026 37.0808 10.6161 37.8825 10.9409L38.2755 11.127L38.8645 7.6398C38.0023 7.31386 36.6508 6.96423 34.9646 6.96423C30.6627 6.96423 27.6306 9.14656 27.6071 12.274C27.5791 14.5849 29.767 15.8751 31.4196 16.6454C33.116 17.4349 33.6848 17.9368 33.6769 18.6417C33.6635 19.7187 32.3243 20.2127 31.0737 20.2127C29.3303 20.2127 28.4043 19.9702 26.9745 19.3702L26.4135 19.1131L25.801 22.7142C26.8199 23.1642 28.6999 23.5511 30.6515 23.5714C35.2277 23.5714 38.2016 21.415 38.233 18.0733C38.252 16.2451 37.0909 14.8499 34.5749 13.7052C33.0521 12.9586 32.1206 12.4624 32.1295 11.709C32.1295 11.0402 32.92 10.3251 34.6242 10.3251Z" fill="white"/>
<path fill-rule="evenodd" clip-rule="evenodd" d="M46.6733 7.25854H50.0368L53.5594 23.339H49.5206C49.5206 23.339 49.1198 21.4905 48.9899 20.9288C48.6551 20.9288 47.2533 20.927 45.9335 20.9252C44.7596 20.9236 43.6506 20.9221 43.415 20.9221C43.2459 21.3563 42.5002 23.339 42.5002 23.339H37.9285L44.3924 8.59388C44.8515 7.54501 45.6286 7.25854 46.6733 7.25854ZM46.4023 13.1322C46.4023 13.1322 45.0262 16.7052 44.6679 17.6288H48.2845L47.2757 12.9834L46.9823 11.5961C46.8722 11.8924 46.7254 12.2769 46.6069 12.5873C46.4832 12.9114 46.3903 13.1547 46.4023 13.1322Z" fill="white"/>
</svg>
