<svg width="110" height="44" viewBox="0 0 110 44" fill="none" xmlns="http://www.w3.org/2000/svg">
<path fill-rule="evenodd" clip-rule="evenodd" d="M52.0225 34.3936V21.4961V21.4936H58.7336C61.5004 21.4953 63.8258 20.5914 65.7096 18.782C67.6133 17.0647 68.6777 14.5955 68.6236 12.0219C68.6613 9.46256 67.5988 7.01173 65.7096 5.29997C63.8423 3.4806 61.3309 2.48793 58.7336 2.54258H47.9606V34.3936H52.0225ZM52.0225 17.5824V6.46392V6.46138H58.8345C60.3527 6.41839 61.8163 7.03381 62.8536 8.15139C63.8972 9.17345 64.486 10.5773 64.486 12.0435C64.486 13.5097 63.8972 14.9136 62.8536 15.9356C61.8036 17.0297 60.3445 17.6275 58.8345 17.5824H52.0225Z" fill="white"/>
<path fill-rule="evenodd" clip-rule="evenodd" d="M85.0934 14.3142C83.356 12.6979 80.9861 11.8897 77.9838 11.8897C74.127 11.8897 71.2147 13.3129 69.2468 16.1592L72.8243 18.4287C74.1463 16.5006 75.9418 15.5366 78.2108 15.5366C79.6574 15.5196 81.0573 16.0522 82.1315 17.0284C83.2025 17.9203 83.8186 19.2501 83.8093 20.6499V21.5851C82.2484 20.6956 80.262 20.2509 77.85 20.2509C75.0243 20.2542 72.7654 20.9218 71.0734 22.2535C69.3813 23.5851 68.5353 25.3785 68.5353 27.6335C68.4984 29.6869 69.3827 31.6476 70.9422 32.9704C72.5468 34.3936 74.5408 35.1052 76.9241 35.1052C79.7162 35.1052 81.9532 33.8599 83.6352 31.3694H83.8118V34.3936H87.6971V20.9624C87.6988 18.1466 86.8309 15.9305 85.0934 14.3142ZM74.0757 30.3909C73.2248 29.7731 72.7229 28.7791 72.7284 27.7225C72.7284 26.5357 73.281 25.5471 74.3936 24.7338C75.4953 23.9325 76.8711 23.5318 78.5211 23.5318C80.7868 23.5318 82.5528 24.04 83.8193 25.0566C83.8193 26.7746 83.1466 28.2714 81.801 29.5472C80.589 30.7682 78.946 31.4554 77.2319 31.4583C76.0891 31.4799 74.9741 31.1028 74.0757 30.3909Z" fill="white"/>
<path d="M110 12.6013L96.4367 44H92.2435L97.2768 33.0136L88.3582 12.6013H92.7733L99.2195 28.2562H99.3078L105.577 12.6013L110 12.6013Z" fill="white"/>
<path d="M35.6081 18.7159C35.6097 17.469 35.505 16.2242 35.2953 14.9953H18.1644V22.0425H27.9762C27.5705 24.3169 26.2599 26.3256 24.3482 27.6031V32.1775H30.204C33.6327 28.9932 35.6081 24.284 35.6081 18.7159Z" fill="white"/>
<path d="M18.1645 36.597C23.0666 36.597 27.1941 34.9756 30.204 32.1801L24.3483 27.6056C22.7184 28.7187 20.6193 29.3541 18.1645 29.3541C13.4264 29.3541 9.4048 26.1367 7.96671 21.8011H1.93433V26.5153C5.01777 32.6959 11.2976 36.5967 18.1645 36.597Z" fill="white"/>
<path d="M7.96666 21.8011C7.2064 19.5292 7.2064 17.0689 7.96666 14.7971V10.0828H1.93428C-0.64476 15.2523 -0.64476 21.3459 1.93428 26.5153L7.96666 21.8011Z" fill="white"/>
<path d="M18.1645 7.24411C20.755 7.20148 23.2582 8.18741 25.1329 9.9888L30.3176 4.76628C27.0299 1.65583 22.6746 -0.051861 18.1645 0.00120051C11.2976 0.00151576 5.01777 3.90232 1.93433 10.0828L7.96671 14.7971C9.4048 10.4615 13.4264 7.24411 18.1645 7.24411Z" fill="white"/>
</svg>
