<svg width="62" height="59" viewBox="0 0 62 59" fill="none" xmlns="http://www.w3.org/2000/svg">
<path fill-rule="evenodd" clip-rule="evenodd" d="M6 9H62V51H6V9Z" fill="#0090F0"/>
<path fill-rule="evenodd" clip-rule="evenodd" d="M1.17188 0H56.8281C57.4754 0 58 0.527368 58 1.17769V45.4628C58 46.1131 57.4754 46.6405 56.8281 46.6405H48.6094C47.9621 46.6405 47.4375 46.1131 47.4375 45.4628C47.4375 44.8125 47.9621 44.2851 48.6094 44.2851H55.6562V10.8347H2.46141C2.42168 10.8347 2.38242 10.8326 2.34375 10.8287V44.2851H12.1562C12.8035 44.2851 13.3281 44.8125 13.3281 45.4628C13.3281 46.1131 12.8035 46.6405 12.1562 46.6405H1.17188C0.524648 46.6405 0 46.1131 0 45.4628V1.17769C0 0.527368 0.524648 0 1.17188 0ZM2.46141 8.47934H55.6562V2.35537H2.34375V8.48534C2.38242 8.48146 2.42168 8.47934 2.46141 8.47934Z" fill="#303030"/>
<path d="M50.5 4.23969H26.0232C25.376 4.23969 24.8513 4.76705 24.8513 5.41737C24.8513 6.06769 25.376 6.59506 26.0232 6.59506H50.5C51.1472 6.59506 51.6718 6.06769 51.6718 5.41737C51.6718 4.76705 51.1472 4.23969 50.5 4.23969Z" fill="#303030"/>
<path d="M13.016 4.58475C12.798 4.3657 12.4957 4.23969 12.1875 4.23969C11.8793 4.23969 11.577 4.36558 11.359 4.58475C11.141 4.8038 11.0156 5.10764 11.0156 5.41737C11.0156 5.7271 11.141 6.03095 11.359 6.24988C11.577 6.46904 11.8793 6.59506 12.1875 6.59506C12.4957 6.59506 12.798 6.46904 13.016 6.24988C13.234 6.03095 13.3594 5.7271 13.3594 5.41737C13.3594 5.10764 13.234 4.8038 13.016 4.58475Z" fill="#0090F0"/>
<path d="M8.32852 4.58475C8.11055 4.3657 7.8082 4.23969 7.5 4.23969C7.1918 4.23969 6.88945 4.36558 6.67148 4.58475C6.45352 4.8038 6.32812 5.10764 6.32812 5.41737C6.32812 5.7271 6.45352 6.03095 6.67148 6.24988C6.88945 6.46904 7.1918 6.59506 7.5 6.59506C7.8082 6.59506 8.11055 6.46904 8.32852 6.24988C8.54648 6.03095 8.67188 5.7271 8.67188 5.41737C8.67188 5.10764 8.54648 4.8038 8.32852 4.58475Z" fill="#0090F0"/>
<path d="M17.7035 4.58475C17.4855 4.3657 17.1832 4.23969 16.875 4.23969C16.5668 4.23969 16.2645 4.36558 16.0465 4.58475C15.8285 4.8038 15.7031 5.10764 15.7031 5.41737C15.7031 5.7271 15.8285 6.03095 16.0465 6.24988C16.2645 6.46904 16.5668 6.59506 16.875 6.59506C17.1832 6.59506 17.4855 6.46904 17.7035 6.24988C17.9215 6.03095 18.0469 5.7271 18.0469 5.41737C18.0469 5.10764 17.9215 4.8038 17.7035 4.58475Z" fill="#0090F0"/>
<path d="M50.5495 13.8967H7.4505C6.83061 13.8967 6.32812 14.424 6.32812 15.0744V24.8512C6.32812 25.5015 6.83061 26.0289 7.4505 26.0289H50.5495C51.1694 26.0289 51.6719 25.5015 51.6719 24.8512V15.0744C51.6719 14.424 51.1694 13.8967 50.5495 13.8967Z" fill="white"/>
<path fill-rule="evenodd" clip-rule="evenodd" d="M7.5 13.8967H50.5C51.1472 13.8967 51.6719 14.424 51.6719 15.0744V24.8512C51.6719 25.5015 51.1472 26.0289 50.5 26.0289H7.5C6.85277 26.0289 6.32812 25.5015 6.32812 24.8512V15.0744C6.32812 14.424 6.85277 13.8967 7.5 13.8967ZM8.67188 23.6735H49.3281V16.252H8.67188V23.6735Z" fill="#303030"/>
<path d="M17.2494 30.1487H12.1676C11.5204 30.1487 10.9957 30.6761 10.9957 31.3264C10.9957 31.9767 11.5204 32.5041 12.1676 32.5041H17.2494C17.8966 32.5041 18.4213 31.9767 18.4213 31.3264C18.4213 30.6761 17.8966 30.1487 17.2494 30.1487Z" fill="#303030"/>
<path d="M8.32852 30.4938C8.11055 30.2748 7.8082 30.1487 7.5 30.1487C7.1918 30.1487 6.88945 30.2746 6.67148 30.4938C6.45352 30.7129 6.32812 31.0167 6.32812 31.3264C6.32812 31.6362 6.45352 31.94 6.67148 32.1589C6.88945 32.3781 7.1918 32.5041 7.5 32.5041C7.8082 32.5041 8.11055 32.3781 8.32852 32.1589C8.54648 31.94 8.67188 31.6362 8.67188 31.3264C8.67188 31.0167 8.54648 30.7129 8.32852 30.4938Z" fill="#303030"/>
<path d="M13 34.8595H12.1676C11.5204 34.8595 10.9957 35.3869 10.9957 36.0372C10.9957 36.6875 11.5204 37.2149 12.1676 37.2149H13C13.6473 37.2149 14.1719 36.6875 14.1719 36.0372C14.1719 35.3869 13.6473 34.8595 13 34.8595Z" fill="#303030"/>
<path d="M50.5 30.1487H43.2158C42.5686 30.1487 42.0439 30.6761 42.0439 31.3264C42.0439 31.9767 42.5686 32.5041 43.2158 32.5041H50.5C51.1472 32.5041 51.6719 31.9767 51.6719 31.3264C51.6719 30.6761 51.1472 30.1487 50.5 30.1487Z" fill="#303030"/>
<path d="M50.4999 34.8595H47.8579C47.2107 34.8595 46.686 35.3869 46.686 36.0372C46.686 36.6875 47.2107 37.2149 47.8579 37.2149H50.4999C51.1472 37.2149 51.6718 36.6875 51.6718 36.0372C51.6718 35.3869 51.1472 34.8595 50.4999 34.8595Z" fill="#303030"/>
<path d="M8.32852 35.2046C8.11055 34.9855 7.8082 34.8595 7.5 34.8595C7.1918 34.8595 6.88945 34.9854 6.67148 35.2046C6.45352 35.4236 6.32812 35.7275 6.32812 36.0372C6.32812 36.3481 6.45352 36.6508 6.67148 36.8697C6.88945 37.0889 7.1918 37.2149 7.5 37.2149C7.8082 37.2149 8.11055 37.0889 8.32852 36.8697C8.54648 36.6508 8.67188 36.3469 8.67188 36.0372C8.67188 35.7275 8.54648 35.4236 8.32852 35.2046Z" fill="#303030"/>
<path d="M29.8281 31C22.2033 31 16 37.203 16 44.8274C16 52.4519 22.2033 58.6548 29.8281 58.6548C37.4529 58.6548 43.6562 52.4519 43.6562 44.8274C43.6562 37.203 37.4529 31 29.8281 31Z" fill="#27C16A"/>
<path fill-rule="evenodd" clip-rule="evenodd" d="M33.7943 40.3433C34.2518 39.8857 34.994 39.8855 35.4516 40.3432C35.9092 40.8009 35.9092 41.543 35.4518 42.0005L32.3038 45.1484C32.4485 45.5028 32.5289 45.8902 32.5289 46.2961C32.5289 47.9761 31.162 49.3428 29.482 49.3428C29.0736 49.3428 28.684 49.2615 28.3278 49.1152L28.0006 49.4423C27.7718 49.6712 27.4718 49.7856 27.1719 49.7856C26.872 49.7856 26.5721 49.6712 26.3432 49.4423C25.8856 48.9847 25.8856 48.2427 26.3432 47.7851L26.667 47.4613C26.5178 47.1021 26.435 46.7086 26.435 46.2961C26.435 44.6161 27.8019 43.2493 29.4819 43.2493C29.8968 43.2493 30.2925 43.333 30.6535 43.4839L33.7943 40.3433ZM28.7786 46.296C28.7786 46.6837 29.094 46.9991 29.4818 46.9991C29.8695 46.9991 30.1849 46.6839 30.1849 46.296C30.1849 45.9082 29.8696 45.5928 29.4818 45.5928C29.094 45.5928 28.7786 45.9082 28.7786 46.296Z" fill="white"/>
</svg>
