<svg width="43" height="40" viewBox="0 0 43 40" fill="none" xmlns="http://www.w3.org/2000/svg">
<path d="M27.4999 27.7333L26.3767 26.0727C32.4833 22.6747 37.2437 19.3414 40.074 16.5333C42.4501 14.1737 43.4719 12.1899 42.7948 10.8485C42.2311 9.74141 40.4713 9.09091 37.8762 9.01414C38.1279 9.77852 38.2925 10.5687 38.3669 11.3697C38.3669 11.3697 38.0019 10.6424 37.8195 10.2909L37.1504 8.99798C33.6085 3.41704 27.4524 0.0239288 20.8256 0C10.0357 0 1.28534 8.95354 1.28534 20C1.28534 21.8707 1.926 25.0343 1.94628 25.1636C4.03858 22.1939 7.62306 18.699 12.8011 15.0949L14.3176 16.8C8.80302 20.202 4.76439 23.9596 2.40853 27.1636C0.336504 29.9919 -0.429862 32.3677 0.231078 33.6889C0.892017 35.0101 3.183 35.2687 6.55663 34.5253C6.05339 33.8857 5.62867 33.1885 5.29152 32.4485C5.29152 32.4485 6.02545 33.2202 6.30929 33.4869L7.23379 34.3677C10.8335 37.9699 15.724 39.9965 20.8256 40C31.6196 40 40.3659 31.0465 40.3659 20C40.3659 19.3737 40.3375 18.7515 40.2848 18.1414C37.9614 20.8525 33.7444 24.1212 27.4999 27.7333Z" fill="white"/>
</svg>
