<svg width="20" height="26" viewBox="0 0 20 26" fill="none" xmlns="http://www.w3.org/2000/svg">
<path d="M15.2135 4.91278C12.8865 2.0869 10.5895 0.250201 10.493 0.173524C9.96865 -0.243021 9.2 0.137623 9.2 0.813346V4.3862C9.2 6.23112 6.79595 6.88038 5.895 5.27687C5.61485 4.77953 4.93365 4.72713 4.581 5.16465C2.15995 8.16531 0 11.9487 0 15.8441C0 21.4441 4.486 26 10 26C15.514 26 20 21.4441 20 15.8441C20 11.8479 17.7281 7.96676 15.2135 4.91278Z" fill="#FC9723"/>
<path d="M12.0854 11.484C11.1546 10.3428 10.2358 9.60104 10.1972 9.57008C9.98746 9.40186 9.68 9.55558 9.68 9.82847V11.2713C9.68 12.0164 8.71838 12.2786 8.358 11.631C8.24594 11.4302 7.97346 11.409 7.8324 11.5857C6.86398 12.7975 6 14.3255 6 15.8986C6 18.1601 7.7944 20 10 20C12.2056 20 14 18.1601 14 15.8986C14 14.2847 13.0912 12.7173 12.0854 11.484Z" fill="white"/>
</svg>
