<svg version="1.2" xmlns="http://www.w3.org/2000/svg" viewBox="0 0 62 60" width="62" height="60">
	<title>web-hosting-svg</title>
	<style>
		.s0 { fill: #0090f0 } 
		.s1 { fill: #000000 } 
		.s2 { fill: #ffffff } 
		.s3 { fill: #27c16a } 
	</style>
	<path id="Layer" fill-rule="evenodd" class="s0" d="m6 9h56v42h-56z"/>
	<path id="Layer" fill-rule="evenodd" class="s1" d="m1.2 0h55.6c0.7 0 1.2 0.5 1.2 1.2v51.3c0 0.6-0.5 1.2-1.2 1.2h-10.2c-0.6 0-1.1-0.6-1.1-1.2 0-0.7 0.5-1.2 1.1-1.2h9.1v-40.5h-53.2q-0.1 0-0.2 0v40.5h7.9c0.6 0 1.2 0.5 1.2 1.2 0 0.6-0.6 1.2-1.2 1.2h-9c-0.7 0-1.2-0.6-1.2-1.2v-51.3c0-0.7 0.5-1.2 1.2-1.2zm1.3 8.4h53.2v-6.1h-53.4v6.1q0.1 0 0.2 0z"/>
	<path id="Layer" class="s1" d="m51.7 5.4c0 0.6-0.6 1.2-1.2 1.2h-24.5c-0.6 0-1.1-0.6-1.1-1.2 0-0.7 0.5-1.2 1.1-1.2h24.5c0.6 0 1.2 0.5 1.2 1.2z"/>
	<path id="Layer" class="s0" d="m13.4 5.4c0 0.3-0.2 0.6-0.4 0.8-0.2 0.2-0.5 0.4-0.8 0.4-0.3 0-0.6-0.2-0.8-0.4-0.3-0.2-0.4-0.5-0.4-0.8 0-0.3 0.1-0.6 0.4-0.8 0.2-0.3 0.5-0.4 0.8-0.4 0.3 0 0.6 0.1 0.8 0.4 0.2 0.2 0.4 0.5 0.4 0.8z"/>
	<path id="Layer" class="s0" d="m8.7 5.4c0 0.3-0.2 0.6-0.4 0.8-0.2 0.2-0.5 0.4-0.8 0.4-0.3 0-0.6-0.2-0.8-0.4-0.2-0.2-0.4-0.5-0.4-0.8 0-0.3 0.2-0.6 0.4-0.8 0.2-0.3 0.5-0.4 0.8-0.4 0.3 0 0.6 0.1 0.8 0.4 0.2 0.2 0.4 0.5 0.4 0.8z"/>
	<path id="Layer" class="s0" d="m18 5.4c0 0.3-0.1 0.6-0.3 0.8-0.2 0.2-0.5 0.4-0.8 0.4-0.3 0-0.6-0.2-0.9-0.4-0.2-0.2-0.3-0.5-0.3-0.8 0-0.3 0.1-0.6 0.3-0.8 0.3-0.3 0.6-0.4 0.9-0.4 0.3 0 0.6 0.1 0.8 0.4 0.2 0.2 0.3 0.5 0.3 0.8z"/>
	<path id="Layer" class="s1" d="m51.7 15v14.1c0 0.7-0.6 1.2-1.2 1.2h-2.6c-0.6 0-1.2-0.5-1.2-1.2 0-0.6 0.6-1.1 1.2-1.1h1.4v-11.8h-40.6v11.8h2.1c0.6 0 1.2 0.5 1.2 1.1 0 0.7-0.6 1.2-1.2 1.2h-3.3c-0.6 0-1.2-0.5-1.2-1.2v-14.1c0-0.7 0.6-1.2 1.2-1.2h43c0.6 0 1.2 0.5 1.2 1.2z"/>
	<path id="Layer" class="s2" d="m14 36c0-2.2 1.8-4 4-4h21c2.2 0 4 1.8 4 4 0 2.2-1.8 4-4 4h-21c-2.2 0-4-1.8-4-4z"/>
	<path id="Layer" fill-rule="evenodd" class="s1" d="m42.1 40.3c1.5 1.1 2.4 2.8 2.4 4.7 0 3.2-2.6 5.9-5.9 5.9h-8.4v2.3c1 0.3 1.8 1.1 2.1 2.1h11c0.7 0 1.2 0.5 1.2 1.2 0 0.6-0.5 1.2-1.2 1.2h-11c-0.5 1.3-1.8 2.3-3.3 2.3-1.5 0-2.8-1-3.3-2.3h-11.2c-0.7 0-1.2-0.6-1.2-1.2 0-0.7 0.5-1.2 1.2-1.2h11.2c0.3-1 1.1-1.8 2.1-2.1v-2.3h-8.6c-3.3 0-5.9-2.7-5.9-5.9 0-1.9 0.9-3.6 2.4-4.7-1.5-1.1-2.4-2.8-2.4-4.7 0-1.9 0.9-3.6 2.4-4.7-1.5-1-2.4-2.7-2.4-4.7 0-3.2 2.6-5.8 5.9-5.8h19.4c3.3 0 5.9 2.6 5.9 5.8 0 2-0.9 3.7-2.4 4.7 1.5 1.1 2.4 2.8 2.4 4.7 0 1.9-0.9 3.6-2.4 4.7zm-22.9-10.5h19.4c2 0 3.5-1.6 3.5-3.6 0-1.9-1.5-3.5-3.5-3.5h-19.4c-2 0-3.5 1.6-3.5 3.5 0 2 1.5 3.6 3.5 3.6zm8.6 26.7c0 0.6 0.6 1.2 1.2 1.2 0.6 0 1.2-0.6 1.2-1.2 0-0.7-0.6-1.2-1.2-1.2-0.6 0-1.2 0.5-1.2 1.2zm10.8-15h-19.4c-2 0-3.5 1.6-3.5 3.5 0 1.9 1.5 3.5 3.5 3.5h19.4c2 0 3.5-1.6 3.5-3.5 0-1.9-1.5-3.5-3.5-3.5zm-19.4-2.4h19.4c2 0 3.5-1.5 3.5-3.5 0-1.9-1.5-3.5-3.5-3.5h-19.4c-2 0-3.5 1.6-3.5 3.5 0 2 1.5 3.5 3.5 3.5z"/>
	<path id="Layer" class="s1" d="m30.2 26.1c0 0.6-0.6 1.2-1.2 1.2h-9.1c-0.6 0-1.2-0.6-1.2-1.2 0-0.7 0.6-1.2 1.2-1.2h9.1c0.6 0 1.2 0.5 1.2 1.2z"/>
	<path id="Layer" class="s1" d="m39.2 26.1c0 0.3-0.2 0.6-0.4 0.8-0.2 0.2-0.5 0.4-0.8 0.4-0.3 0-0.6-0.2-0.8-0.4-0.3-0.2-0.4-0.5-0.4-0.8 0-0.3 0.1-0.6 0.4-0.8 0.2-0.3 0.5-0.4 0.8-0.4 0.3 0 0.6 0.1 0.8 0.4 0.2 0.2 0.4 0.5 0.4 0.8z"/>
	<path id="Layer" class="s1" d="m34.8 26.1c0 0.3-0.1 0.6-0.3 0.8-0.2 0.2-0.5 0.4-0.8 0.4-0.3 0-0.6-0.2-0.9-0.4-0.2-0.2-0.3-0.5-0.3-0.8 0-0.3 0.1-0.6 0.3-0.8 0.3-0.3 0.6-0.4 0.9-0.4 0.3 0 0.6 0.1 0.8 0.4 0.2 0.2 0.3 0.5 0.3 0.8z"/>
	<path id="Layer" class="s1" d="m30.2 35.5c0 0.6-0.6 1.1-1.2 1.1h-9.1c-0.6 0-1.2-0.5-1.2-1.1 0-0.7 0.6-1.2 1.2-1.2h9.1c0.6 0 1.2 0.5 1.2 1.2z"/>
	<path id="Layer" class="s1" d="m39.2 35.5c0 0.3-0.2 0.6-0.4 0.8-0.2 0.2-0.5 0.3-0.8 0.3-0.3 0-0.6-0.1-0.8-0.3-0.3-0.2-0.4-0.5-0.4-0.8 0-0.4 0.1-0.7 0.4-0.9 0.2-0.2 0.5-0.3 0.8-0.3 0.3 0 0.6 0.1 0.8 0.3 0.2 0.2 0.4 0.5 0.4 0.9z"/>
	<path id="Layer" class="s1" d="m34.8 35.5c0 0.3-0.1 0.6-0.3 0.8-0.2 0.2-0.5 0.3-0.8 0.3-0.3 0-0.6-0.1-0.9-0.3-0.2-0.2-0.3-0.5-0.3-0.8 0-0.4 0.1-0.7 0.3-0.9 0.3-0.2 0.6-0.3 0.9-0.3 0.3 0 0.6 0.1 0.8 0.3 0.2 0.2 0.3 0.5 0.3 0.9z"/>
	<path id="Layer" class="s1" d="m30.2 44.8c0 0.7-0.6 1.2-1.2 1.2h-9.1c-0.6 0-1.2-0.5-1.2-1.2 0-0.6 0.6-1.1 1.2-1.1h9.1c0.6 0 1.2 0.5 1.2 1.1z"/>
	<path id="Layer" class="s1" d="m39.2 44.8c0 0.3-0.2 0.6-0.4 0.9-0.2 0.2-0.5 0.3-0.8 0.3-0.3 0-0.6-0.1-0.8-0.3-0.3-0.3-0.4-0.6-0.4-0.9 0-0.3 0.1-0.6 0.4-0.8 0.2-0.2 0.5-0.3 0.8-0.3 0.3 0 0.6 0.1 0.8 0.3 0.2 0.2 0.4 0.5 0.4 0.8z"/>
	<path id="Layer" class="s1" d="m34.8 44.8c0 0.3-0.1 0.6-0.3 0.9-0.2 0.2-0.5 0.3-0.8 0.3-0.3 0-0.6-0.1-0.9-0.3-0.2-0.3-0.3-0.6-0.3-0.9 0-0.3 0.1-0.6 0.3-0.8 0.3-0.2 0.6-0.3 0.9-0.3 0.3 0 0.6 0.1 0.8 0.3 0.2 0.2 0.3 0.5 0.3 0.8z"/>
	<path id="Layer" class="s3" d="m61.7 45.8c0 7.7-6.2 13.9-13.9 13.9-7.6 0-13.8-6.2-13.8-13.9 0-7.6 6.2-13.8 13.8-13.8 7.7 0 13.9 6.2 13.9 13.8z"/>
	<path id="Layer" class="s2" d="m42.8 43.1h2.2v7.9h-2.2c-0.5 0-0.8-0.4-0.8-0.8v-6.3c0-0.4 0.3-0.8 0.8-0.8z"/>
	<path id="Layer" class="s2" d="m54 45.4q0 0.1 0 0.3l-0.8 3.9c-0.3 0.8-1 1.4-1.8 1.4h-3.8c-1 0-1.9-0.9-1.9-2v-4.1c0-0.5 0.2-0.9 0.5-1.3l3-3.5q0.2-0.1 0.4-0.1l0.5 0.2c0.4 0 0.7 0.3 0.8 0.6 0.1 0.4 0.1 0.7 0 1.1l-0.8 1.4c-0.1 0.2-0.1 0.4 0 0.4 0 0.1 0.1 0.2 0.3 0.2h2.2c0.8 0 1.4 0.7 1.4 1.5z"/>
</svg>